<svg width="449" height="449" viewBox="0 0 449 449" fill="none" xmlns="http://www.w3.org/2000/svg">
<rect opacity="0.0344828" x="38.7743" y="347.743" width="284.488" height="343.004" transform="rotate(-84 38.7743 347.743)" stroke="white" stroke-width="1"/>
<rect opacity="0.0689655" x="32.5631" y="337.869" width="284.488" height="343.004" transform="rotate(-81 32.5631 337.869)" stroke="white" stroke-width="1"/>
<rect opacity="0.103448" x="26.877" y="327.683" width="284.488" height="343.004" transform="rotate(-78 26.877 327.683)" stroke="white" stroke-width="1"/>
<rect opacity="0.137931" x="21.7318" y="317.215" width="284.488" height="343.004" transform="rotate(-75 21.7318 317.215)" stroke="white" stroke-width="1"/>
<rect opacity="0.172414" x="17.1415" y="306.49" width="284.488" height="343.004" transform="rotate(-72 17.1415 306.49)" stroke="white" stroke-width="1"/>
<rect opacity="0.206897" x="13.1189" y="295.541" width="284.488" height="343.004" transform="rotate(-69 13.1189 295.541)" stroke="white" stroke-width="1"/>
<rect opacity="0.241379" x="9.67477" y="284.395" width="284.488" height="343.004" transform="rotate(-66 9.67477 284.395)" stroke="white" stroke-width="1"/>
<rect opacity="0.275862" x="6.81875" y="273.085" width="284.488" height="343.004" transform="rotate(-63 6.81875 273.085)" stroke="white" stroke-width="1"/>
<rect opacity="0.310345" x="4.55841" y="261.641" width="284.488" height="343.004" transform="rotate(-60 4.55841 261.641)" stroke="white" stroke-width="1"/>
<rect opacity="0.344828" x="2.90016" y="250.094" width="284.488" height="343.004" transform="rotate(-57 2.90016 250.094)" stroke="white" stroke-width="1"/>
<rect opacity="0.37931" x="1.84858" y="238.476" width="284.488" height="343.004" transform="rotate(-54 1.84858 238.476)" stroke="white" stroke-width="1"/>
<rect opacity="0.413793" x="1.40647" y="226.819" width="284.488" height="343.004" transform="rotate(-51 1.40647 226.819)" stroke="white" stroke-width="1"/>
<rect opacity="0.448276" x="1.57487" y="215.155" width="284.488" height="343.004" transform="rotate(-48 1.57487 215.155)" stroke="white" stroke-width="1"/>
<rect opacity="0.482759" x="2.35367" y="203.516" width="284.488" height="343.004" transform="rotate(-45 2.35367 203.516)" stroke="white" stroke-width="1"/>
<rect opacity="0.517241" x="3.74052" y="191.934" width="284.488" height="343.004" transform="rotate(-42 3.74052 191.934)" stroke="white" stroke-width="1"/>
<rect opacity="0.551724" x="5.73154" y="180.44" width="284.488" height="343.004" transform="rotate(-39 5.73154 180.44)" stroke="white" stroke-width="1"/>
<rect opacity="0.586207" x="8.32148" y="169.066" width="284.488" height="343.004" transform="rotate(-36 8.32148 169.066)" stroke="white" stroke-width="1"/>
<rect opacity="0.62069" x="11.5031" y="157.843" width="284.488" height="343.004" transform="rotate(-33 11.5031 157.843)" stroke="white" stroke-width="1"/>
<rect opacity="0.655172" x="15.2678" y="146.803" width="284.488" height="343.004" transform="rotate(-30 15.2678 146.803)" stroke="white" stroke-width="1"/>
<rect opacity="0.689655" x="19.6051" y="135.973" width="284.488" height="343.004" transform="rotate(-27 19.6051 135.973)" stroke="white" stroke-width="1"/>
<rect opacity="0.724138" x="24.5033" y="125.385" width="284.488" height="343.004" transform="rotate(-24 24.5033 125.385)" stroke="white" stroke-width="1"/>
<rect opacity="0.758621" x="29.9486" y="115.07" width="284.488" height="343.004" transform="rotate(-21 29.9486 115.07)" stroke="white" stroke-width="1"/>
<rect opacity="0.793103" x="35.9265" y="105.053" width="284.488" height="343.004" transform="rotate(-18 35.9265 105.053)" stroke="white" stroke-width="1"/>
<rect opacity="0.827586" x="42.4205" y="95.3629" width="284.488" height="343.004" transform="rotate(-15 42.4205 95.3629)" stroke="white" stroke-width="1"/>
<rect opacity="0.862069" x="49.4129" y="86.0256" width="284.488" height="343.004" transform="rotate(-12 49.4129 86.0256)" stroke="white" stroke-width="1"/>
<rect opacity="0.896552" x="56.8841" y="77.0661" width="284.488" height="343.004" transform="rotate(-9 56.8841 77.0661)" stroke="white" stroke-width="1"/>
<rect opacity="0.931035" x="64.8141" y="68.5116" width="284.488" height="343.004" transform="rotate(-6 64.8141 68.5116)" stroke="white" stroke-width="1"/>
<rect opacity="0.965517" x="73.181" y="60.3818" width="284.488" height="343.004" transform="rotate(-3 73.181 60.3818)" stroke="white" stroke-width="1"/>
<rect x="81.9617" y="52.7026" width="284.488" height="343.004" stroke="white" stroke-width="1"/>
</svg>
