<svg width="250" height="160" viewBox="0 0 250 160" fill="none" xmlns="http://www.w3.org/2000/svg">
<g clip-path="url(#clip0_104_3313)">
<rect width="250" height="160" fill="none"/>
<path d="M-5 0L0.545405 3.552L6.09279 0L11.6402 3.552L17.1875 0L22.733 3.552L28.2803 0L33.8277 3.552L39.3751 0L44.9225 3.552L50.4699 0L56.0153 3.552L61.5626 0L67.11 3.552L72.6594 0L78.2068 3.552L83.7541 0L89.3015 3.552L94.8489 0L100.396 3.552M100.396 3.552L105.946 0L111.493 3.552L117.04 0L122.588 3.552L128.135 0L133.685 3.552L139.232 0L144.781 3.552L150.331 0L155.88 3.552M100.396 3.552L94.85 0M100.396 3.552L105.943 0L111.49 3.552L117.038 0L122.583 3.552L128.13 0L133.678 3.552L139.225 0L144.772 3.552L150.32 0L155.865 3.552L161.413 0L166.96 3.552L172.509 0L178.057 3.552L183.604 0L189.152 3.552L194.699 0L200.246 3.552L205.796 0L211.343 3.552L216.89 0L222.438 3.552L227.985 0L233.535 3.552L239.082 0L244.631 3.552L250.181 0L255.73 3.552M-5 28.448L0.545405 32L6.09279 28.448L11.6402 32L17.1875 28.448L22.733 32L28.2803 28.448L33.8277 32L39.3751 28.448L44.9225 32L50.4699 28.448L56.0153 32L61.5626 28.448L67.11 32L72.6594 28.448L78.2068 32L83.7541 28.448L89.3015 32L94.8489 28.448L100.396 32M100.396 32L105.946 28.448L111.493 32L117.04 28.448L122.588 32L128.135 28.448L133.685 32L139.232 28.448L144.781 32L150.331 28.448L155.88 32M100.396 32L94.85 28.448M100.396 32L105.943 28.448L111.49 32L117.038 28.448L122.583 32L128.13 28.448L133.678 32L139.225 28.448L144.772 32L150.32 28.448L155.865 32L161.413 28.448L166.96 32L172.509 28.448L178.057 32L183.604 28.448L189.152 32L194.699 28.448L200.246 32L205.796 28.448L211.343 32L216.89 28.448L222.438 32L227.985 28.448L233.535 32L239.082 28.448L244.631 32L250.181 28.448L255.73 32M-5 88.896L0.545405 92.448L6.09279 88.896L11.6402 92.448L17.1875 88.896L22.733 92.448L28.2803 88.896L33.8277 92.448L39.3751 88.896L44.9225 92.448L50.4699 88.896L56.0153 92.448L61.5626 88.896L67.11 92.448L72.6594 88.896L78.2068 92.448L83.7541 88.896L89.3015 92.448L94.8489 88.896L100.396 92.448M100.396 92.448L105.946 88.896L111.493 92.448L117.04 88.896L122.588 92.448L128.135 88.896L133.685 92.448L139.232 88.896L144.781 92.448L150.331 88.896L155.88 92.448M100.396 92.448L94.85 88.896M100.396 92.448L105.943 88.896L111.49 92.448L117.038 88.896L122.583 92.448L128.13 88.896L133.678 92.448L139.225 88.896L144.772 92.448L150.32 88.896L155.865 92.448L161.413 88.896L166.96 92.448L172.509 88.896L178.057 92.448L183.604 88.896L189.152 92.448L194.699 88.896L200.246 92.448L205.796 88.896L211.343 92.448L216.89 88.896L222.438 92.448L227.985 88.896L233.535 92.448L239.082 88.896L244.631 92.448L250.181 88.896L255.73 92.448M-5 56.8961L0.545405 60.4481L6.09279 56.8961L11.6402 60.4481L17.1875 56.8961L22.733 60.4481L28.2803 56.8961L33.8277 60.4481L39.3751 56.8961L44.9225 60.4481L50.4699 56.8961L56.0153 60.4481L61.5626 56.8961L67.11 60.4481L72.6594 56.8961L78.2068 60.4481L83.7541 56.8961L89.3015 60.4481L94.8489 56.8961L100.396 60.4481M100.396 60.4481L105.946 56.8961L111.493 60.4481L117.04 56.8961L122.588 60.4481L128.135 56.8961L133.685 60.4481L139.232 56.8961L144.781 60.4481L150.331 56.8961L155.88 60.4481M100.396 60.4481L94.85 56.8961M100.396 60.4481L105.943 56.8961L111.49 60.4481L117.038 56.8961L122.583 60.4481L128.13 56.8961L133.678 60.4481L139.225 56.8961L144.772 60.4481L150.32 56.8961L155.865 60.4481L161.413 56.8961L166.96 60.4481L172.509 56.8961L178.057 60.4481L183.604 56.8961L189.152 60.4481L194.699 56.8961L200.246 60.4481L205.796 56.8961L211.343 60.4481L216.89 56.8961L222.438 60.4481L227.985 56.8961L233.535 60.4481L239.082 56.8961L244.631 60.4481L250.181 56.8961L255.73 60.4481M-5 117.328L0.545405 120.896L6.09279 117.328L11.6402 120.896L17.1875 117.328L22.733 120.896L28.2803 117.328L33.8277 120.896L39.3751 117.328L44.9225 120.896L50.4699 117.328L56.0153 120.896L61.5626 117.328L67.11 120.896L72.6594 117.328L78.2068 120.896L83.7541 117.328L89.3015 120.896L94.8489 117.328L100.396 120.896M100.396 120.896L105.946 117.328L111.493 120.896L117.04 117.328L122.588 120.896L128.135 117.328L133.685 120.896L139.232 117.328L144.781 120.896L150.331 117.328L155.88 120.896M100.396 120.896L94.85 117.328M100.396 120.896L105.943 117.328L111.49 120.896L117.038 117.328L122.583 120.896L128.13 117.328L133.678 120.896L139.225 117.328L144.772 120.896L150.32 117.328L155.865 120.896L161.413 117.328L166.96 120.896L172.509 117.328L178.057 120.896L183.604 117.328L189.152 120.896L194.699 117.328L200.246 120.896L205.796 117.328L211.343 120.896L216.89 117.328L222.438 120.896L227.985 117.328L233.535 120.896L239.082 117.328L244.631 120.896L250.181 117.328L255.73 120.896M-5 14.2241L0.545405 17.7761L6.09279 14.2241L11.6402 17.7761L17.1875 14.2241L22.733 17.7761L28.2803 14.2241L33.8277 17.7761L39.3751 14.2241L44.9225 17.7761L50.4699 14.2241L56.0153 17.7761L61.5626 14.2241L67.11 17.7761L72.6594 14.2241L78.2068 17.7761L83.7541 14.2241L89.3015 17.7761L94.8489 14.2241L100.396 17.7761M100.396 17.7761L105.946 14.2241L111.493 17.7761L117.04 14.2241L122.588 17.7761L128.135 14.2241L133.685 17.7761L139.232 14.2241L144.781 17.7761L150.331 14.2241L155.88 17.7761M100.396 17.7761L94.85 14.2241M100.396 17.7761L105.943 14.2241L111.49 17.7761L117.038 14.2241L122.583 17.7761L128.13 14.2241L133.678 17.7761L139.225 14.2241L144.772 17.7761L150.32 14.2241L155.865 17.7761L161.413 14.2241L166.96 17.7761L172.509 14.2241L178.057 17.7761L183.604 14.2241L189.152 17.7761L194.699 14.2241L200.246 17.7761L205.796 14.2241L211.343 17.7761L216.89 14.2241L222.438 17.7761L227.985 14.2241L233.535 17.7761L239.082 14.2241L244.631 17.7761L250.181 14.2241L255.73 17.7761M-5 42.6721L0.545405 46.2241L6.09279 42.6721L11.6402 46.2241L17.1875 42.6721L22.733 46.2241L28.2803 42.6721L33.8277 46.2241L39.3751 42.6721L44.9225 46.2241L50.4699 42.6721L56.0153 46.2241L61.5626 42.6721L67.11 46.2241L72.6594 42.6721L78.2068 46.2241L83.7541 42.6721L89.3015 46.2241L94.8489 42.6721L100.396 46.2241M100.396 46.2241L105.946 42.6721L111.493 46.2241L117.04 42.6721L122.588 46.2241L128.135 42.6721L133.685 46.2241L139.232 42.6721L144.781 46.2241L150.331 42.6721L155.88 46.2241M100.396 46.2241L94.85 42.6721M100.396 46.2241L105.943 42.6721L111.49 46.2241L117.038 42.6721L122.583 46.2241L128.13 42.6721L133.678 46.2241L139.225 42.6721L144.772 46.2241L150.32 42.6721L155.865 46.2241L161.413 42.6721L166.96 46.2241L172.509 42.6721L178.057 46.2241L183.604 42.6721L189.152 46.2241L194.699 42.6721L200.246 46.2241L205.796 42.6721L211.343 46.2241L216.89 42.6721L222.438 46.2241L227.985 42.6721L233.535 46.2241L239.082 42.6721L244.631 46.2241L250.181 42.6721L255.73 46.2241M-5 103.104L0.545405 106.672L6.09279 103.104L11.6402 106.672L17.1875 103.104L22.733 106.672L28.2803 103.104L33.8277 106.672L39.3751 103.104L44.9225 106.672L50.4699 103.104L56.0153 106.672L61.5626 103.104L67.11 106.672L72.6594 103.104L78.2068 106.672L83.7541 103.104L89.3015 106.672L94.8489 103.104L100.396 106.672M100.396 106.672L105.946 103.104L111.493 106.672L117.04 103.104L122.588 106.672L128.135 103.104L133.685 106.672L139.232 103.104L144.781 106.672L150.331 103.104L155.88 106.672M100.396 106.672L94.85 103.104M100.396 106.672L105.943 103.104L111.49 106.672L117.038 103.104L122.583 106.672L128.13 103.104L133.678 106.672L139.225 103.104L144.772 106.672L150.32 103.104L155.865 106.672L161.413 103.104L166.96 106.672L172.509 103.104L178.057 106.672L183.604 103.104L189.152 106.672L194.699 103.104L200.246 106.672L205.796 103.104L211.343 106.672L216.89 103.104L222.438 106.672L227.985 103.104L233.535 106.672L239.082 103.104L244.631 106.672L250.181 103.104L255.73 106.672M-5 71.1041L0.545405 74.6721L6.09279 71.1041L11.6402 74.6721L17.1875 71.1041L22.733 74.6721L28.2803 71.1041L33.8277 74.6721L39.3751 71.1041L44.9225 74.6721L50.4699 71.1041L56.0153 74.6721L61.5626 71.1041L67.11 74.6721L72.6594 71.1041L78.2068 74.6721L83.7541 71.1041L89.3015 74.6721L94.8489 71.1041L100.396 74.6721M100.396 74.6721L105.946 71.1041L111.493 74.6721L117.04 71.1041L122.588 74.6721L128.135 71.1041L133.685 74.6721L139.232 71.1041L144.781 74.6721L150.331 71.1041L155.88 74.6721M100.396 74.6721L94.85 71.1041M100.396 74.6721L105.943 71.1041L111.49 74.6721L117.038 71.1041L122.583 74.6721L128.13 71.1041L133.678 74.6721L139.225 71.1041L144.772 74.6721L150.32 71.1041L155.865 74.6721L161.413 71.1041L166.96 74.6721L172.509 71.1041L178.057 74.6721L183.604 71.1041L189.152 74.6721L194.699 71.1041L200.246 74.6721L205.796 71.1041L211.343 74.6721L216.89 71.1041L222.438 74.6721L227.985 71.1041L233.535 74.6721L239.082 71.1041L244.631 74.6721L250.181 71.1041L255.73 74.6721M-5 131.552L0.545405 135.104L6.09279 131.552L11.6402 135.104L17.1875 131.552L22.733 135.104L28.2803 131.552L33.8277 135.104L39.3751 131.552L44.9225 135.104L50.4699 131.552L56.0153 135.104L61.5626 131.552L67.11 135.104L72.6594 131.552L78.2068 135.104L83.7541 131.552L89.3015 135.104L94.8489 131.552L100.396 135.104M100.396 135.104L105.946 131.552L111.493 135.104L117.04 131.552L122.588 135.104L128.135 131.552L133.685 135.104L139.232 131.552L144.781 135.104L150.331 131.552L155.88 135.104M100.396 135.104L94.85 131.552M100.396 135.104L105.943 131.552L111.49 135.104L117.038 131.552L122.583 135.104L128.13 131.552L133.678 135.104L139.225 131.552L144.772 135.104L150.32 131.552L155.865 135.104L161.413 131.552L166.96 135.104L172.509 131.552L178.057 135.104L183.604 131.552L189.152 135.104L194.699 131.552L200.246 135.104L205.796 131.552L211.343 135.104L216.89 131.552L222.438 135.104L227.985 131.552L233.535 135.104L239.082 131.552L244.631 135.104L250.181 131.552L255.73 135.104M-5 145.776L0.545405 149.328L6.09279 145.776L11.6402 149.328L17.1875 145.776L22.733 149.328L28.2803 145.776L33.8277 149.328L39.3751 145.776L44.9225 149.328L50.4699 145.776L56.0153 149.328L61.5626 145.776L67.11 149.328L72.6594 145.776L78.2068 149.328L83.7541 145.776L89.3015 149.328L94.8489 145.776L100.396 149.328M100.396 149.328L105.946 145.776L111.493 149.328L117.04 145.776L122.588 149.328L128.135 145.776L133.685 149.328L139.232 145.776L144.781 149.328L150.331 145.776L155.88 149.328M100.396 149.328L94.85 145.776M100.396 149.328L105.943 145.776L111.49 149.328L117.038 145.776L122.583 149.328L128.13 145.776L133.678 149.328L139.225 145.776L144.772 149.328L150.32 145.776L155.865 149.328L161.413 145.776L166.96 149.328L172.509 145.776L178.057 149.328L183.604 145.776L189.152 149.328L194.699 145.776L200.246 149.328L205.796 145.776L211.343 149.328L216.89 145.776L222.438 149.328L227.985 145.776L233.535 149.328L239.082 145.776L244.631 149.328L250.181 145.776L255.73 149.328M-5 7.10406L0.545405 10.6721L6.09279 7.10406L11.6402 10.6721L17.1875 7.10406L22.733 10.6721L28.2803 7.10406L33.8277 10.6721L39.3751 7.10406L44.9225 10.6721L50.4699 7.10406L56.0153 10.6721L61.5626 7.10406L67.11 10.6721L72.6594 7.10406L78.2068 10.6721L83.7541 7.10406L89.3015 10.6721L94.8489 7.10406L100.396 10.6721M100.396 10.6721L105.946 7.10406L111.493 10.6721L117.04 7.10406L122.588 10.6721L128.135 7.10406L133.685 10.6721L139.232 7.10406L144.781 10.6721L150.331 7.10406L155.88 10.6721M100.396 10.6721L94.85 7.10406M100.396 10.6721L105.943 7.10406L111.49 10.6721L117.038 7.10406L122.583 10.6721L128.13 7.10406L133.678 10.6721L139.225 7.10406L144.772 10.6721L150.32 7.10406L155.865 10.6721L161.413 7.10406L166.96 10.6721L172.509 7.10406L178.057 10.6721L183.604 7.10406L189.152 10.6721L194.699 7.10406L200.246 10.6721L205.796 7.10406L211.343 10.6721L216.89 7.10406L222.438 10.6721L227.985 7.10406L233.535 10.6721L239.082 7.10406L244.631 10.6721L250.181 7.10406L255.73 10.6721M-5 35.552L0.545405 39.104L6.09279 35.552L11.6402 39.104L17.1875 35.552L22.733 39.104L28.2803 35.552L33.8277 39.104L39.3751 35.552L44.9225 39.104L50.4699 35.552L56.0153 39.104L61.5626 35.552L67.11 39.104L72.6594 35.552L78.2068 39.104L83.7541 35.552L89.3015 39.104L94.8489 35.552L100.396 39.104M100.396 39.104L105.946 35.552L111.493 39.104L117.04 35.552L122.588 39.104L128.135 35.552L133.685 39.104L139.232 35.552L144.781 39.104L150.331 35.552L155.88 39.104M100.396 39.104L94.85 35.552M100.396 39.104L105.943 35.552L111.49 39.104L117.038 35.552L122.583 39.104L128.13 35.552L133.678 39.104L139.225 35.552L144.772 39.104L150.32 35.552L155.865 39.104L161.413 35.552L166.96 39.104L172.509 35.552L178.057 39.104L183.604 35.552L189.152 39.104L194.699 35.552L200.246 39.104L205.796 35.552L211.343 39.104L216.89 35.552L222.438 39.104L227.985 35.552L233.535 39.104L239.082 35.552L244.631 39.104L250.181 35.552L255.73 39.104M-5 96.0001L0.545405 99.5521L6.09279 96.0001L11.6402 99.5521L17.1875 96.0001L22.733 99.5521L28.2803 96.0001L33.8277 99.5521L39.3751 96.0001L44.9225 99.5521L50.4699 96.0001L56.0153 99.5521L61.5626 96.0001L67.11 99.5521L72.6594 96.0001L78.2068 99.5521L83.7541 96.0001L89.3015 99.5521L94.8489 96.0001L100.396 99.5521M100.396 99.5521L105.946 96.0001L111.493 99.5521L117.04 96.0001L122.588 99.5521L128.135 96.0001L133.685 99.5521L139.232 96.0001L144.781 99.5521L150.331 96.0001L155.88 99.5521M100.396 99.5521L94.85 96.0001M100.396 99.5521L105.943 96.0001L111.49 99.5521L117.038 96.0001L122.583 99.5521L128.13 96.0001L133.678 99.5521L139.225 96.0001L144.772 99.5521L150.32 96.0001L155.865 99.5521L161.413 96.0001L166.96 99.5521L172.509 96.0001L178.057 99.5521L183.604 96.0001L189.152 99.5521L194.699 96.0001L200.246 99.5521L205.796 96.0001L211.343 99.5521L216.89 96.0001L222.438 99.5521L227.985 96.0001L233.535 99.5521L239.082 96.0001L244.631 99.5521L250.181 96.0001L255.73 99.5521M-5 64.0001L0.545405 67.5521L6.09279 64.0001L11.6402 67.5521L17.1875 64.0001L22.733 67.5521L28.2803 64.0001L33.8277 67.5521L39.3751 64.0001L44.9225 67.5521L50.4699 64.0001L56.0153 67.5521L61.5626 64.0001L67.11 67.5521L72.6594 64.0001L78.2068 67.5521L83.7541 64.0001L89.3015 67.5521L94.8489 64.0001L100.396 67.5521M100.396 67.5521L105.946 64.0001L111.493 67.5521L117.04 64.0001L122.588 67.5521L128.135 64.0001L133.685 67.5521L139.232 64.0001L144.781 67.5521L150.331 64.0001L155.88 67.5521M100.396 67.5521L94.85 64.0001M100.396 67.5521L105.943 64.0001L111.49 67.5521L117.038 64.0001L122.583 67.5521L128.13 64.0001L133.678 67.5521L139.225 64.0001L144.772 67.5521L150.32 64.0001L155.865 67.5521L161.413 64.0001L166.96 67.5521L172.509 64.0001L178.057 67.5521L183.604 64.0001L189.152 67.5521L194.699 64.0001L200.246 67.5521L205.796 64.0001L211.343 67.5521L216.89 64.0001L222.438 67.5521L227.985 64.0001L233.535 67.5521L239.082 64.0001L244.631 67.5521L250.181 64.0001L255.73 67.5521M-5 124.448L0.545405 128L6.09279 124.448L11.6402 128L17.1875 124.448L22.733 128L28.2803 124.448L33.8277 128L39.3751 124.448L44.9225 128L50.4699 124.448L56.0153 128L61.5626 124.448L67.11 128L72.6594 124.448L78.2068 128L83.7541 124.448L89.3015 128L94.8489 124.448L100.396 128M100.396 128L105.946 124.448L111.493 128L117.04 124.448L122.588 128L128.135 124.448L133.685 128L139.232 124.448L144.781 128L150.331 124.448L155.88 128M100.396 128L94.85 124.448M100.396 128L105.943 124.448L111.49 128L117.038 124.448L122.583 128L128.13 124.448L133.678 128L139.225 124.448L144.772 128L150.32 124.448L155.865 128L161.413 124.448L166.96 128L172.509 124.448L178.057 128L183.604 124.448L189.152 128L194.699 124.448L200.246 128L205.796 124.448L211.343 128L216.89 124.448L222.438 128L227.985 124.448L233.535 128L239.082 124.448L244.631 128L250.181 124.448L255.73 128M-5 21.3281L0.545405 24.8961L6.09279 21.3281L11.6402 24.8961L17.1875 21.3281L22.733 24.8961L28.2803 21.3281L33.8277 24.8961L39.3751 21.3281L44.9225 24.8961L50.4699 21.3281L56.0153 24.8961L61.5626 21.3281L67.11 24.8961L72.6594 21.3281L78.2068 24.8961L83.7541 21.3281L89.3015 24.8961L94.8489 21.3281L100.396 24.8961M100.396 24.8961L105.946 21.3281L111.493 24.8961L117.04 21.3281L122.588 24.8961L128.135 21.3281L133.685 24.8961L139.232 21.3281L144.781 24.8961L150.331 21.3281L155.88 24.8961M100.396 24.8961L94.85 21.3281M100.396 24.8961L105.943 21.3281L111.49 24.8961L117.038 21.3281L122.583 24.8961L128.13 21.3281L133.678 24.8961L139.225 21.3281L144.772 24.8961L150.32 21.3281L155.865 24.8961L161.413 21.3281L166.96 24.8961L172.509 21.3281L178.057 24.8961L183.604 21.3281L189.152 24.8961L194.699 21.3281L200.246 24.8961L205.796 21.3281L211.343 24.8961L216.89 21.3281L222.438 24.8961L227.985 21.3281L233.535 24.8961L239.082 21.3281L244.631 24.8961L250.181 21.3281L255.73 24.8961M-5 49.7761L0.545405 53.3281L6.09279 49.7761L11.6402 53.3281L17.1875 49.7761L22.733 53.3281L28.2803 49.7761L33.8277 53.3281L39.3751 49.7761L44.9225 53.3281L50.4699 49.7761L56.0153 53.3281L61.5626 49.7761L67.11 53.3281L72.6594 49.7761L78.2068 53.3281L83.7541 49.7761L89.3015 53.3281L94.8489 49.7761L100.396 53.3281M100.396 53.3281L105.946 49.7761L111.493 53.3281L117.04 49.7761L122.588 53.3281L128.135 49.7761L133.685 53.3281L139.232 49.7761L144.781 53.3281L150.331 49.7761L155.88 53.3281M100.396 53.3281L94.85 49.7761M100.396 53.3281L105.943 49.7761L111.49 53.3281L117.038 49.7761L122.583 53.3281L128.13 49.7761L133.678 53.3281L139.225 49.7761L144.772 53.3281L150.32 49.7761L155.865 53.3281L161.413 49.7761L166.96 53.3281L172.509 49.7761L178.057 53.3281L183.604 49.7761L189.152 53.3281L194.699 49.7761L200.246 53.3281L205.796 49.7761L211.343 53.3281L216.89 49.7761L222.438 53.3281L227.985 49.7761L233.535 53.3281L239.082 49.7761L244.631 53.3281L250.181 49.7761L255.73 53.3281M-5 110.224L0.545405 113.776L6.09279 110.224L11.6402 113.776L17.1875 110.224L22.733 113.776L28.2803 110.224L33.8277 113.776L39.3751 110.224L44.9225 113.776L50.4699 110.224L56.0153 113.776L61.5626 110.224L67.11 113.776L72.6594 110.224L78.2068 113.776L83.7541 110.224L89.3015 113.776L94.8489 110.224L100.396 113.776M100.396 113.776L105.946 110.224L111.493 113.776L117.04 110.224L122.588 113.776L128.135 110.224L133.685 113.776L139.232 110.224L144.781 113.776L150.331 110.224L155.88 113.776M100.396 113.776L94.85 110.224M100.396 113.776L105.943 110.224L111.49 113.776L117.038 110.224L122.583 113.776L128.13 110.224L133.678 113.776L139.225 110.224L144.772 113.776L150.32 110.224L155.865 113.776L161.413 110.224L166.96 113.776L172.509 110.224L178.057 113.776L183.604 110.224L189.152 113.776L194.699 110.224L200.246 113.776L205.796 110.224L211.343 113.776L216.89 110.224L222.438 113.776L227.985 110.224L233.535 113.776L239.082 110.224L244.631 113.776L250.181 110.224L255.73 113.776M-5 78.2241L0.545405 81.7761L6.09279 78.2241L11.6402 81.7761L17.1875 78.2241L22.733 81.7761L28.2803 78.2241L33.8277 81.7761L39.3751 78.2241L44.9225 81.7761L50.4699 78.2241L56.0153 81.7761L61.5626 78.2241L67.11 81.7761L72.6594 78.2241L78.2068 81.7761L83.7541 78.2241L89.3015 81.7761L94.8489 78.2241L100.396 81.7761M100.396 81.7761L105.946 78.2241L111.493 81.7761L117.04 78.2241L122.588 81.7761L128.135 78.2241L133.685 81.7761L139.232 78.2241L144.781 81.7761L150.331 78.2241L155.88 81.7761M100.396 81.7761L94.85 78.2241M100.396 81.7761L105.943 78.2241L111.49 81.7761L117.038 78.2241L122.583 81.7761L128.13 78.2241L133.678 81.7761L139.225 78.2241L144.772 81.7761L150.32 78.2241L155.865 81.7761L161.413 78.2241L166.96 81.7761L172.509 78.2241L178.057 81.7761L183.604 78.2241L189.152 81.7761L194.699 78.2241L200.246 81.7761L205.796 78.2241L211.343 81.7761L216.89 78.2241L222.438 81.7761L227.985 78.2241L233.535 81.7761L239.082 78.2241L244.631 81.7761L250.181 78.2241L255.73 81.7761M-5 138.672L0.545405 142.224L6.09279 138.672L11.6402 142.224L17.1875 138.672L22.733 142.224L28.2803 138.672L33.8277 142.224L39.3751 138.672L44.9225 142.224L50.4699 138.672L56.0153 142.224L61.5626 138.672L67.11 142.224L72.6594 138.672L78.2068 142.224L83.7541 138.672L89.3015 142.224L94.8489 138.672L100.396 142.224M100.396 142.224L105.946 138.672L111.493 142.224L117.04 138.672L122.588 142.224L128.135 138.672L133.685 142.224L139.232 138.672L144.781 142.224L150.331 138.672L155.88 142.224M100.396 142.224L94.85 138.672M100.396 142.224L105.943 138.672L111.49 142.224L117.038 138.672L122.583 142.224L128.13 138.672L133.678 142.224L139.225 138.672L144.772 142.224L150.32 138.672L155.865 142.224L161.413 138.672L166.96 142.224L172.509 138.672L178.057 142.224L183.604 138.672L189.152 142.224L194.699 138.672L200.246 142.224L205.796 138.672L211.343 142.224L216.89 138.672L222.438 142.224L227.985 138.672L233.535 142.224L239.082 138.672L244.631 142.224L250.181 138.672L255.73 142.224M-5 152.896L0.545405 156.448L6.09279 152.896L11.6402 156.448L17.1875 152.896L22.733 156.448L28.2803 152.896L33.8277 156.448L39.3751 152.896L44.9225 156.448L50.4699 152.896L56.0153 156.448L61.5626 152.896L67.11 156.448L72.6594 152.896L78.2068 156.448L83.7541 152.896L89.3015 156.448L94.8489 152.896L100.396 156.448M100.396 156.448L105.946 152.896L111.493 156.448L117.04 152.896L122.588 156.448L128.135 152.896L133.685 156.448L139.232 152.896L144.781 156.448L150.331 152.896L155.88 156.448M100.396 156.448L94.85 152.896M100.396 156.448L105.943 152.896L111.49 156.448L117.038 152.896L122.583 156.448L128.13 152.896L133.678 156.448L139.225 152.896L144.772 156.448L150.32 152.896L155.865 156.448L161.413 152.896L166.96 156.448L172.509 152.896L178.057 156.448L183.604 152.896L189.152 156.448L194.699 152.896L200.246 156.448L205.796 152.896L211.343 156.448L216.89 152.896L222.438 156.448L227.985 152.896L233.535 156.448L239.082 152.896L244.631 156.448L250.181 152.896L255.73 156.448M-5 3.55206L0.545405 7.10406L6.09279 3.55206L11.6402 7.10406L17.1875 3.55206L22.733 7.10406L28.2803 3.55206L33.8277 7.10406L39.3751 3.55206L44.9225 7.10406L50.4699 3.55206L56.0153 7.10406L61.5626 3.55206L67.11 7.10406L72.6594 3.55206L78.2068 7.10406L83.7541 3.55206L89.3015 7.10406L94.8489 3.55206L100.396 7.10406M100.396 7.10406L105.946 3.55206L111.493 7.10406L117.04 3.55206L122.588 7.10406L128.135 3.55206L133.685 7.10406L139.232 3.55206L144.781 7.10406L150.331 3.55206L155.88 7.10406M100.396 7.10406L94.85 3.55206M100.396 7.10406L105.943 3.55206L111.49 7.10406L117.038 3.55206L122.583 7.10406L128.13 3.55206L133.678 7.10406L139.225 3.55206L144.772 7.10406L150.32 3.55206L155.865 7.10406L161.413 3.55206L166.96 7.10406L172.509 3.55206L178.057 7.10406L183.604 3.55206L189.152 7.10406L194.699 3.55206L200.246 7.10406L205.796 3.55206L211.343 7.10406L216.89 3.55206L222.438 7.10406L227.985 3.55206L233.535 7.10406L239.082 3.55206L244.631 7.10406L250.181 3.55206L255.73 7.10406M-5 32L0.545405 35.552L6.09279 32L11.6402 35.552L17.1875 32L22.733 35.552L28.2803 32L33.8277 35.552L39.3751 32L44.9225 35.552L50.4699 32L56.0153 35.552L61.5626 32L67.11 35.552L72.6594 32L78.2068 35.552L83.7541 32L89.3015 35.552L94.8489 32L100.396 35.552M100.396 35.552L105.946 32L111.493 35.552L117.04 32L122.588 35.552L128.135 32L133.685 35.552L139.232 32L144.781 35.552L150.331 32L155.88 35.552M100.396 35.552L94.85 32M100.396 35.552L105.943 32L111.49 35.552L117.038 32L122.583 35.552L128.13 32L133.678 35.552L139.225 32L144.772 35.552L150.32 32L155.865 35.552L161.413 32L166.96 35.552L172.509 32L178.057 35.552L183.604 32L189.152 35.552L194.699 32L200.246 35.552L205.796 32L211.343 35.552L216.89 32L222.438 35.552L227.985 32L233.535 35.552L239.082 32L244.631 35.552L250.181 32L255.73 35.552M-5 92.4481L0.545405 96.0001L6.09279 92.4481L11.6402 96.0001L17.1875 92.4481L22.733 96.0001L28.2803 92.4481L33.8277 96.0001L39.3751 92.4481L44.9225 96.0001L50.4699 92.4481L56.0153 96.0001L61.5626 92.4481L67.11 96.0001L72.6594 92.4481L78.2068 96.0001L83.7541 92.4481L89.3015 96.0001L94.8489 92.4481L100.396 96.0001M100.396 96.0001L105.946 92.4481L111.493 96.0001L117.04 92.4481L122.588 96.0001L128.135 92.4481L133.685 96.0001L139.232 92.4481L144.781 96.0001L150.331 92.4481L155.88 96.0001M100.396 96.0001L94.85 92.4481M100.396 96.0001L105.943 92.4481L111.49 96.0001L117.038 92.4481L122.583 96.0001L128.13 92.4481L133.678 96.0001L139.225 92.4481L144.772 96.0001L150.32 92.4481L155.865 96.0001L161.413 92.4481L166.96 96.0001L172.509 92.4481L178.057 96.0001L183.604 92.4481L189.152 96.0001L194.699 92.4481L200.246 96.0001L205.796 92.4481L211.343 96.0001L216.89 92.4481L222.438 96.0001L227.985 92.4481L233.535 96.0001L239.082 92.4481L244.631 96.0001L250.181 92.4481L255.73 96.0001M-5 60.4481L0.545405 64.0001L6.09279 60.4481L11.6402 64.0001L17.1875 60.4481L22.733 64.0001L28.2803 60.4481L33.8277 64.0001L39.3751 60.4481L44.9225 64.0001L50.4699 60.4481L56.0153 64.0001L61.5626 60.4481L67.11 64.0001L72.6594 60.4481L78.2068 64.0001L83.7541 60.4481L89.3015 64.0001L94.8489 60.4481L100.396 64.0001M100.396 64.0001L105.946 60.4481L111.493 64.0001L117.04 60.4481L122.588 64.0001L128.135 60.4481L133.685 64.0001L139.232 60.4481L144.781 64.0001L150.331 60.4481L155.88 64.0001M100.396 64.0001L94.85 60.4481M100.396 64.0001L105.943 60.4481L111.49 64.0001L117.038 60.4481L122.583 64.0001L128.13 60.4481L133.678 64.0001L139.225 60.4481L144.772 64.0001L150.32 60.4481L155.865 64.0001L161.413 60.4481L166.96 64.0001L172.509 60.4481L178.057 64.0001L183.604 60.4481L189.152 64.0001L194.699 60.4481L200.246 64.0001L205.796 60.4481L211.343 64.0001L216.89 60.4481L222.438 64.0001L227.985 60.4481L233.535 64.0001L239.082 60.4481L244.631 64.0001L250.181 60.4481L255.73 64.0001M-5 120.896L0.545405 124.448L6.09279 120.896L11.6402 124.448L17.1875 120.896L22.733 124.448L28.2803 120.896L33.8277 124.448L39.3751 120.896L44.9225 124.448L50.4699 120.896L56.0153 124.448L61.5626 120.896L67.11 124.448L72.6594 120.896L78.2068 124.448L83.7541 120.896L89.3015 124.448L94.8489 120.896L100.396 124.448M100.396 124.448L105.946 120.896L111.493 124.448L117.04 120.896L122.588 124.448L128.135 120.896L133.685 124.448L139.232 120.896L144.781 124.448L150.331 120.896L155.88 124.448M100.396 124.448L94.85 120.896M100.396 124.448L105.943 120.896L111.49 124.448L117.038 120.896L122.583 124.448L128.13 120.896L133.678 124.448L139.225 120.896L144.772 124.448L150.32 120.896L155.865 124.448L161.413 120.896L166.96 124.448L172.509 120.896L178.057 124.448L183.604 120.896L189.152 124.448L194.699 120.896L200.246 124.448L205.796 120.896L211.343 124.448L216.89 120.896L222.438 124.448L227.985 120.896L233.535 124.448L239.082 120.896L244.631 124.448L250.181 120.896L255.73 124.448M-5 17.7761L0.545405 21.3281L6.09279 17.7761L11.6402 21.3281L17.1875 17.7761L22.733 21.3281L28.2803 17.7761L33.8277 21.3281L39.3751 17.7761L44.9225 21.3281L50.4699 17.7761L56.0153 21.3281L61.5626 17.7761L67.11 21.3281L72.6594 17.7761L78.2068 21.3281L83.7541 17.7761L89.3015 21.3281L94.8489 17.7761L100.396 21.3281M100.396 21.3281L105.946 17.7761L111.493 21.3281L117.04 17.7761L122.588 21.3281L128.135 17.7761L133.685 21.3281L139.232 17.7761L144.781 21.3281L150.331 17.7761L155.88 21.3281M100.396 21.3281L94.85 17.7761M100.396 21.3281L105.943 17.7761L111.49 21.3281L117.038 17.7761L122.583 21.3281L128.13 17.7761L133.678 21.3281L139.225 17.7761L144.772 21.3281L150.32 17.7761L155.865 21.3281L161.413 17.7761L166.96 21.3281L172.509 17.7761L178.057 21.3281L183.604 17.7761L189.152 21.3281L194.699 17.7761L200.246 21.3281L205.796 17.7761L211.343 21.3281L216.89 17.7761L222.438 21.3281L227.985 17.7761L233.535 21.3281L239.082 17.7761L244.631 21.3281L250.181 17.7761L255.73 21.3281M-5 46.2241L0.545405 49.7761L6.09279 46.2241L11.6402 49.7761L17.1875 46.2241L22.733 49.7761L28.2803 46.2241L33.8277 49.7761L39.3751 46.2241L44.9225 49.7761L50.4699 46.2241L56.0153 49.7761L61.5626 46.2241L67.11 49.7761L72.6594 46.2241L78.2068 49.7761L83.7541 46.2241L89.3015 49.7761L94.8489 46.2241L100.396 49.7761M100.396 49.7761L105.946 46.2241L111.493 49.7761L117.04 46.2241L122.588 49.7761L128.135 46.2241L133.685 49.7761L139.232 46.2241L144.781 49.7761L150.331 46.2241L155.88 49.7761M100.396 49.7761L94.85 46.2241M100.396 49.7761L105.943 46.2241L111.49 49.7761L117.038 46.2241L122.583 49.7761L128.13 46.2241L133.678 49.7761L139.225 46.2241L144.772 49.7761L150.32 46.2241L155.865 49.7761L161.413 46.2241L166.96 49.7761L172.509 46.2241L178.057 49.7761L183.604 46.2241L189.152 49.7761L194.699 46.2241L200.246 49.7761L205.796 46.2241L211.343 49.7761L216.89 46.2241L222.438 49.7761L227.985 46.2241L233.535 49.7761L239.082 46.2241L244.631 49.7761L250.181 46.2241L255.73 49.7761M-5 106.672L0.545405 110.224L6.09279 106.672L11.6402 110.224L17.1875 106.672L22.733 110.224L28.2803 106.672L33.8277 110.224L39.3751 106.672L44.9225 110.224L50.4699 106.672L56.0153 110.224L61.5626 106.672L67.11 110.224L72.6594 106.672L78.2068 110.224L83.7541 106.672L89.3015 110.224L94.8489 106.672L100.396 110.224M100.396 110.224L105.946 106.672L111.493 110.224L117.04 106.672L122.588 110.224L128.135 106.672L133.685 110.224L139.232 106.672L144.781 110.224L150.331 106.672L155.88 110.224M100.396 110.224L94.85 106.672M100.396 110.224L105.943 106.672L111.49 110.224L117.038 106.672L122.583 110.224L128.13 106.672L133.678 110.224L139.225 106.672L144.772 110.224L150.32 106.672L155.865 110.224L161.413 106.672L166.96 110.224L172.509 106.672L178.057 110.224L183.604 106.672L189.152 110.224L194.699 106.672L200.246 110.224L205.796 106.672L211.343 110.224L216.89 106.672L222.438 110.224L227.985 106.672L233.535 110.224L239.082 106.672L244.631 110.224L250.181 106.672L255.73 110.224M-5 74.672L0.545405 78.224L6.09279 74.672L11.6402 78.224L17.1875 74.672L22.733 78.224L28.2803 74.672L33.8277 78.224L39.3751 74.672L44.9225 78.224L50.4699 74.672L56.0153 78.224L61.5626 74.672L67.11 78.224L72.6594 74.672L78.2068 78.224L83.7541 74.672L89.3015 78.224L94.8489 74.672L100.396 78.224M100.396 78.224L105.946 74.672L111.493 78.224L117.04 74.672L122.588 78.224L128.135 74.672L133.685 78.224L139.232 74.672L144.781 78.224L150.331 74.672L155.88 78.224M100.396 78.224L94.85 74.672M100.396 78.224L105.943 74.672L111.49 78.224L117.038 74.672L122.583 78.224L128.13 74.672L133.678 78.224L139.225 74.672L144.772 78.224L150.32 74.672L155.865 78.224L161.413 74.672L166.96 78.224L172.509 74.672L178.057 78.224L183.604 74.672L189.152 78.224L194.699 74.672L200.246 78.224L205.796 74.672L211.343 78.224L216.89 74.672L222.438 78.224L227.985 74.672L233.535 78.224L239.082 74.672L244.631 78.224L250.181 74.672L255.73 78.224M-5 135.104L0.545405 138.672L6.09279 135.104L11.6402 138.672L17.1875 135.104L22.733 138.672L28.2803 135.104L33.8277 138.672L39.3751 135.104L44.9225 138.672L50.4699 135.104L56.0153 138.672L61.5626 135.104L67.11 138.672L72.6594 135.104L78.2068 138.672L83.7541 135.104L89.3015 138.672L94.8489 135.104L100.396 138.672M100.396 138.672L105.946 135.104L111.493 138.672L117.04 135.104L122.588 138.672L128.135 135.104L133.685 138.672L139.232 135.104L144.781 138.672L150.331 135.104L155.88 138.672M100.396 138.672L94.85 135.104M100.396 138.672L105.943 135.104L111.49 138.672L117.038 135.104L122.583 138.672L128.13 135.104L133.678 138.672L139.225 135.104L144.772 138.672L150.32 135.104L155.865 138.672L161.413 135.104L166.96 138.672L172.509 135.104L178.057 138.672L183.604 135.104L189.152 138.672L194.699 135.104L200.246 138.672L205.796 135.104L211.343 138.672L216.89 135.104L222.438 138.672L227.985 135.104L233.535 138.672L239.082 135.104L244.631 138.672L250.181 135.104L255.73 138.672M-5 149.328L0.545405 152.896L6.09279 149.328L11.6402 152.896L17.1875 149.328L22.733 152.896L28.2803 149.328L33.8277 152.896L39.3751 149.328L44.9225 152.896L50.4699 149.328L56.0153 152.896L61.5626 149.328L67.11 152.896L72.6594 149.328L78.2068 152.896L83.7541 149.328L89.3015 152.896L94.8489 149.328L100.396 152.896M100.396 152.896L105.946 149.328L111.493 152.896L117.04 149.328L122.588 152.896L128.135 149.328L133.685 152.896L139.232 149.328L144.781 152.896L150.331 149.328L155.88 152.896M100.396 152.896L94.85 149.328M100.396 152.896L105.943 149.328L111.49 152.896L117.038 149.328L122.583 152.896L128.13 149.328L133.678 152.896L139.225 149.328L144.772 152.896L150.32 149.328L155.865 152.896L161.413 149.328L166.96 152.896L172.509 149.328L178.057 152.896L183.604 149.328L189.152 152.896L194.699 149.328L200.246 152.896L205.796 149.328L211.343 152.896L216.89 149.328L222.438 152.896L227.985 149.328L233.535 152.896L239.082 149.328L244.631 152.896L250.181 149.328L255.73 152.896M-5 10.6721L0.545405 14.2241L6.09279 10.6721L11.6402 14.2241L17.1875 10.6721L22.733 14.2241L28.2803 10.6721L33.8277 14.2241L39.3751 10.6721L44.9225 14.2241L50.4699 10.6721L56.0153 14.2241L61.5626 10.6721L67.11 14.2241L72.6594 10.6721L78.2068 14.2241L83.7541 10.6721L89.3015 14.2241L94.8489 10.6721L100.396 14.2241M100.396 14.2241L105.946 10.6721L111.493 14.2241L117.04 10.6721L122.588 14.2241L128.135 10.6721L133.685 14.2241L139.232 10.6721L144.781 14.2241L150.331 10.6721L155.88 14.2241M100.396 14.2241L94.85 10.6721M100.396 14.2241L105.943 10.6721L111.49 14.2241L117.038 10.6721L122.583 14.2241L128.13 10.6721L133.678 14.2241L139.225 10.6721L144.772 14.2241L150.32 10.6721L155.865 14.2241L161.413 10.6721L166.96 14.2241L172.509 10.6721L178.057 14.2241L183.604 10.6721L189.152 14.2241L194.699 10.6721L200.246 14.2241L205.796 10.6721L211.343 14.2241L216.89 10.6721L222.438 14.2241L227.985 10.6721L233.535 14.2241L239.082 10.6721L244.631 14.2241L250.181 10.6721L255.73 14.2241M-5 39.104L0.545405 42.672L6.09279 39.104L11.6402 42.672L17.1875 39.104L22.733 42.672L28.2803 39.104L33.8277 42.672L39.3751 39.104L44.9225 42.672L50.4699 39.104L56.0153 42.672L61.5626 39.104L67.11 42.672L72.6594 39.104L78.2068 42.672L83.7541 39.104L89.3015 42.672L94.8489 39.104L100.396 42.672M100.396 42.672L105.946 39.104L111.493 42.672L117.04 39.104L122.588 42.672L128.135 39.104L133.685 42.672L139.232 39.104L144.781 42.672L150.331 39.104L155.88 42.672M100.396 42.672L94.85 39.104M100.396 42.672L105.943 39.104L111.49 42.672L117.038 39.104L122.583 42.672L128.13 39.104L133.678 42.672L139.225 39.104L144.772 42.672L150.32 39.104L155.865 42.672L161.413 39.104L166.96 42.672L172.509 39.104L178.057 42.672L183.604 39.104L189.152 42.672L194.699 39.104L200.246 42.672L205.796 39.104L211.343 42.672L216.89 39.104L222.438 42.672L227.985 39.104L233.535 42.672L239.082 39.104L244.631 42.672L250.181 39.104L255.73 42.672M-5 99.552L0.545405 103.104L6.09279 99.552L11.6402 103.104L17.1875 99.552L22.733 103.104L28.2803 99.552L33.8277 103.104L39.3751 99.552L44.9225 103.104L50.4699 99.552L56.0153 103.104L61.5626 99.552L67.11 103.104L72.6594 99.552L78.2068 103.104L83.7541 99.552L89.3015 103.104L94.8489 99.552L100.396 103.104M100.396 103.104L105.946 99.552L111.493 103.104L117.04 99.552L122.588 103.104L128.135 99.552L133.685 103.104L139.232 99.552L144.781 103.104L150.331 99.552L155.88 103.104M100.396 103.104L94.85 99.552M100.396 103.104L105.943 99.552L111.49 103.104L117.038 99.552L122.583 103.104L128.13 99.552L133.678 103.104L139.225 99.552L144.772 103.104L150.32 99.552L155.865 103.104L161.413 99.552L166.96 103.104L172.509 99.552L178.057 103.104L183.604 99.552L189.152 103.104L194.699 99.552L200.246 103.104L205.796 99.552L211.343 103.104L216.89 99.552L222.438 103.104L227.985 99.552L233.535 103.104L239.082 99.552L244.631 103.104L250.181 99.552L255.73 103.104M-5 67.5521L0.545405 71.1041L6.09279 67.5521L11.6402 71.1041L17.1875 67.5521L22.733 71.1041L28.2803 67.5521L33.8277 71.1041L39.3751 67.5521L44.9225 71.1041L50.4699 67.5521L56.0153 71.1041L61.5626 67.5521L67.11 71.1041L72.6594 67.5521L78.2068 71.1041L83.7541 67.5521L89.3015 71.1041L94.8489 67.5521L100.396 71.1041M100.396 71.1041L105.946 67.5521L111.493 71.1041L117.04 67.5521L122.588 71.1041L128.135 67.5521L133.685 71.1041L139.232 67.5521L144.781 71.1041L150.331 67.5521L155.88 71.1041M100.396 71.1041L94.85 67.5521M100.396 71.1041L105.943 67.5521L111.49 71.1041L117.038 67.5521L122.583 71.1041L128.13 67.5521L133.678 71.1041L139.225 67.5521L144.772 71.1041L150.32 67.5521L155.865 71.1041L161.413 67.5521L166.96 71.1041L172.509 67.5521L178.057 71.1041L183.604 67.5521L189.152 71.1041L194.699 67.5521L200.246 71.1041L205.796 67.5521L211.343 71.1041L216.89 67.5521L222.438 71.1041L227.985 67.5521L233.535 71.1041L239.082 67.5521L244.631 71.1041L250.181 67.5521L255.73 71.1041M-5 128L0.545405 131.552L6.09279 128L11.6402 131.552L17.1875 128L22.733 131.552L28.2803 128L33.8277 131.552L39.3751 128L44.9225 131.552L50.4699 128L56.0153 131.552L61.5626 128L67.11 131.552L72.6594 128L78.2068 131.552L83.7541 128L89.3015 131.552L94.8489 128L100.396 131.552M100.396 131.552L105.946 128L111.493 131.552L117.04 128L122.588 131.552L128.135 128L133.685 131.552L139.232 128L144.781 131.552L150.331 128L155.88 131.552M100.396 131.552L94.85 128M100.396 131.552L105.943 128L111.49 131.552L117.038 128L122.583 131.552L128.13 128L133.678 131.552L139.225 128L144.772 131.552L150.32 128L155.865 131.552L161.413 128L166.96 131.552L172.509 128L178.057 131.552L183.604 128L189.152 131.552L194.699 128L200.246 131.552L205.796 128L211.343 131.552L216.89 128L222.438 131.552L227.985 128L233.535 131.552L239.082 128L244.631 131.552L250.181 128L255.73 131.552M-5 24.896L0.545405 28.448L6.09279 24.896L11.6402 28.448L17.1875 24.896L22.733 28.448L28.2803 24.896L33.8277 28.448L39.3751 24.896L44.9225 28.448L50.4699 24.896L56.0153 28.448L61.5626 24.896L67.11 28.448L72.6594 24.896L78.2068 28.448L83.7541 24.896L89.3015 28.448L94.8489 24.896L100.396 28.448M100.396 28.448L105.946 24.896L111.493 28.448L117.04 24.896L122.588 28.448L128.135 24.896L133.685 28.448L139.232 24.896L144.781 28.448L150.331 24.896L155.88 28.448M100.396 28.448L94.85 24.896M100.396 28.448L105.943 24.896L111.49 28.448L117.038 24.896L122.583 28.448L128.13 24.896L133.678 28.448L139.225 24.896L144.772 28.448L150.32 24.896L155.865 28.448L161.413 24.896L166.96 28.448L172.509 24.896L178.057 28.448L183.604 24.896L189.152 28.448L194.699 24.896L200.246 28.448L205.796 24.896L211.343 28.448L216.89 24.896L222.438 28.448L227.985 24.896L233.535 28.448L239.082 24.896L244.631 28.448L250.181 24.896L255.73 28.448M-5 85.328L0.545405 88.896L6.09279 85.328L11.6402 88.896L17.1875 85.328L22.733 88.896L28.2803 85.328L33.8277 88.896L39.3751 85.328L44.9225 88.896L50.4699 85.328L56.0153 88.896L61.5626 85.328L67.11 88.896L72.6594 85.328L78.2068 88.896L83.7541 85.328L89.3015 88.896L94.8489 85.328L100.396 88.896M100.396 88.896L105.946 85.328L111.493 88.896L117.04 85.328L122.588 88.896L128.135 85.328L133.685 88.896L139.232 85.328L144.781 88.896L150.331 85.328L155.88 88.896M100.396 88.896L94.85 85.328M100.396 88.896L105.943 85.328L111.49 88.896L117.038 85.328L122.583 88.896L128.13 85.328L133.678 88.896L139.225 85.328L144.772 88.896L150.32 85.328L155.865 88.896L161.413 85.328L166.96 88.896L172.509 85.328L178.057 88.896L183.604 85.328L189.152 88.896L194.699 85.328L200.246 88.896L205.796 85.328L211.343 88.896L216.89 85.328L222.438 88.896L227.985 85.328L233.535 88.896L239.082 85.328L244.631 88.896L250.181 85.328L255.73 88.896M-5 53.3281L0.545405 56.8961L6.09279 53.3281L11.6402 56.8961L17.1875 53.3281L22.733 56.8961L28.2803 53.3281L33.8277 56.8961L39.3751 53.3281L44.9225 56.8961L50.4699 53.3281L56.0153 56.8961L61.5626 53.3281L67.11 56.8961L72.6594 53.3281L78.2068 56.8961L83.7541 53.3281L89.3015 56.8961L94.8489 53.3281L100.396 56.8961M100.396 56.8961L105.946 53.3281L111.493 56.8961L117.04 53.3281L122.588 56.8961L128.135 53.3281L133.685 56.8961L139.232 53.3281L144.781 56.8961L150.331 53.3281L155.88 56.8961M100.396 56.8961L94.85 53.3281M100.396 56.8961L105.943 53.3281L111.49 56.8961L117.038 53.3281L122.583 56.8961L128.13 53.3281L133.678 56.8961L139.225 53.3281L144.772 56.8961L150.32 53.3281L155.865 56.8961L161.413 53.3281L166.96 56.8961L172.509 53.3281L178.057 56.8961L183.604 53.3281L189.152 56.8961L194.699 53.3281L200.246 56.8961L205.796 53.3281L211.343 56.8961L216.89 53.3281L222.438 56.8961L227.985 53.3281L233.535 56.8961L239.082 53.3281L244.631 56.8961L250.181 53.3281L255.73 56.8961M-5 113.776L0.545405 117.328L6.09279 113.776L11.6402 117.328L17.1875 113.776L22.733 117.328L28.2803 113.776L33.8277 117.328L39.3751 113.776L44.9225 117.328L50.4699 113.776L56.0153 117.328L61.5626 113.776L67.11 117.328L72.6594 113.776L78.2068 117.328L83.7541 113.776L89.3015 117.328L94.8489 113.776L100.396 117.328M100.396 117.328L105.946 113.776L111.493 117.328L117.04 113.776L122.588 117.328L128.135 113.776L133.685 117.328L139.232 113.776L144.781 117.328L150.331 113.776L155.88 117.328M100.396 117.328L94.85 113.776M100.396 117.328L105.943 113.776L111.49 117.328L117.038 113.776L122.583 117.328L128.13 113.776L133.678 117.328L139.225 113.776L144.772 117.328L150.32 113.776L155.865 117.328L161.413 113.776L166.96 117.328L172.509 113.776L178.057 117.328L183.604 113.776L189.152 117.328L194.699 113.776L200.246 117.328L205.796 113.776L211.343 117.328L216.89 113.776L222.438 117.328L227.985 113.776L233.535 117.328L239.082 113.776L244.631 117.328L250.181 113.776L255.73 117.328M-5 81.776L0.545405 85.328L6.09279 81.776L11.6402 85.328L17.1875 81.776L22.733 85.328L28.2803 81.776L33.8277 85.328L39.3751 81.776L44.9225 85.328L50.4699 81.776L56.0153 85.328L61.5626 81.776L67.11 85.328L72.6594 81.776L78.2068 85.328L83.7541 81.776L89.3015 85.328L94.8489 81.776L100.396 85.328M100.396 85.328L105.946 81.776L111.493 85.328L117.04 81.776L122.588 85.328L128.135 81.776L133.685 85.328L139.232 81.776L144.781 85.328L150.331 81.776L155.88 85.328M100.396 85.328L94.85 81.776M100.396 85.328L105.943 81.776L111.49 85.328L117.038 81.776L122.583 85.328L128.13 81.776L133.678 85.328L139.225 81.776L144.772 85.328L150.32 81.776L155.865 85.328L161.413 81.776L166.96 85.328L172.509 81.776L178.057 85.328L183.604 81.776L189.152 85.328L194.699 81.776L200.246 85.328L205.796 81.776L211.343 85.328L216.89 81.776L222.438 85.328L227.985 81.776L233.535 85.328L239.082 81.776L244.631 85.328L250.181 81.776L255.73 85.328M-5 142.224L0.545405 145.776L6.09279 142.224L11.6402 145.776L17.1875 142.224L22.733 145.776L28.2803 142.224L33.8277 145.776L39.3751 142.224L44.9225 145.776L50.4699 142.224L56.0153 145.776L61.5626 142.224L67.11 145.776L72.6594 142.224L78.2068 145.776L83.7541 142.224L89.3015 145.776L94.8489 142.224L100.396 145.776M100.396 145.776L105.946 142.224L111.493 145.776L117.04 142.224L122.588 145.776L128.135 142.224L133.685 145.776L139.232 142.224L144.781 145.776L150.331 142.224L155.88 145.776M100.396 145.776L94.85 142.224M100.396 145.776L105.943 142.224L111.49 145.776L117.038 142.224L122.583 145.776L128.13 142.224L133.678 145.776L139.225 142.224L144.772 145.776L150.32 142.224L155.865 145.776L161.413 142.224L166.96 145.776L172.509 142.224L178.057 145.776L183.604 142.224L189.152 145.776L194.699 142.224L200.246 145.776L205.796 142.224L211.343 145.776L216.89 142.224L222.438 145.776L227.985 142.224L233.535 145.776L239.082 142.224L244.631 145.776L250.181 142.224L255.73 145.776M-5 156.448L0.545405 160L6.09279 156.448L11.6402 160L17.1875 156.448L22.733 160L28.2803 156.448L33.8277 160L39.3751 156.448L44.9225 160L50.4699 156.448L56.0153 160L61.5626 156.448L67.11 160L72.6594 156.448L78.2068 160L83.7541 156.448L89.3015 160L94.8489 156.448L100.396 160M100.396 160L105.946 156.448L111.493 160L117.04 156.448L122.588 160L128.135 156.448L133.685 160L139.232 156.448L144.781 160L150.331 156.448L155.88 160M100.396 160L94.85 156.448M100.396 160L105.943 156.448L111.49 160L117.038 156.448L122.583 160L128.13 156.448L133.678 160L139.225 156.448L144.772 160L150.32 156.448L155.865 160L161.413 156.448L166.96 160L172.509 156.448L178.057 160L183.604 156.448L189.152 160L194.699 156.448L200.246 160L205.796 156.448L211.343 160L216.89 156.448L222.438 160L227.985 156.448L233.535 160L239.082 156.448L244.631 160L250.181 156.448L255.73 160" stroke="black" stroke-width="0.597907" stroke-miterlimit="10" stroke-linecap="round"/>
</g>
<defs>
<clipPath id="clip0_104_3313">
<rect width="250" height="160" fill="white"/>
</clipPath>
</defs>
</svg>
