<svg width="160" height="250" viewBox="0 0 160 250" fill="none" xmlns="http://www.w3.org/2000/svg">
<path d="M2.21133e-05 248.586L-0.707085 249.293L2.21133e-05 250L0.707129 249.293L2.21133e-05 248.586Z" fill="white"/>
<path d="M2.21133e-05 239.697L-0.707085 240.404L2.21133e-05 241.111L0.707129 240.404L2.21133e-05 239.697Z" fill="white"/>
<path d="M2.21133e-05 230.808L-0.707085 231.515L2.21133e-05 232.222L0.707129 231.515L2.21133e-05 230.808Z" fill="white"/>
<path d="M2.21133e-05 221.919L-0.707085 222.626L2.21133e-05 223.333L0.707129 222.626L2.21133e-05 221.919Z" fill="white"/>
<path d="M2.21133e-05 213.03L-0.707085 213.737L2.21133e-05 214.444L0.707129 213.737L2.21133e-05 213.03Z" fill="white"/>
<path d="M2.21133e-05 204.141L-0.707085 204.848L2.21133e-05 205.556L0.707129 204.848L2.21133e-05 204.141Z" fill="white"/>
<path d="M2.21133e-05 195.252L-0.707085 195.96L2.21133e-05 196.667L0.707129 195.96L2.21133e-05 195.252Z" fill="white"/>
<path d="M2.21133e-05 186.364L-0.707085 187.071L2.21133e-05 187.778L0.707129 187.071L2.21133e-05 186.364Z" fill="white"/>
<path d="M2.21133e-05 177.475L-0.707085 178.182L2.21133e-05 178.889L0.707129 178.182L2.21133e-05 177.475Z" fill="white"/>
<path d="M2.21133e-05 168.586L-0.707085 169.293L2.21133e-05 170L0.707129 169.293L2.21133e-05 168.586Z" fill="white"/>
<path d="M2.21133e-05 159.697L-0.707085 160.404L2.21133e-05 161.111L0.707129 160.404L2.21133e-05 159.697Z" fill="white"/>
<path d="M2.21133e-05 150.808L-0.707085 151.515L2.21133e-05 152.222L0.707129 151.515L2.21133e-05 150.808Z" fill="white"/>
<path d="M2.21133e-05 141.919L-0.707085 142.626L2.21133e-05 143.333L0.707129 142.626L2.21133e-05 141.919Z" fill="white"/>
<path d="M2.21133e-05 133.03L-0.707085 133.737L2.21133e-05 134.444L0.707129 133.737L2.21133e-05 133.03Z" fill="white"/>
<path d="M2.21133e-05 124.141L-0.707085 124.848L2.21133e-05 125.556L0.707129 124.848L2.21133e-05 124.141Z" fill="white"/>
<path d="M2.21133e-05 115.253L-0.707085 115.96L2.21133e-05 116.667L0.707129 115.96L2.21133e-05 115.253Z" fill="white"/>
<path d="M2.21133e-05 106.364L-0.707085 107.071L2.21133e-05 107.778L0.707129 107.071L2.21133e-05 106.364Z" fill="white"/>
<path d="M2.21133e-05 97.4748L-0.707085 98.1819L2.21133e-05 98.889L0.707129 98.1819L2.21133e-05 97.4748Z" fill="white"/>
<path d="M2.21133e-05 88.5858L-0.707085 89.2929L2.21133e-05 90L0.707129 89.2929L2.21133e-05 88.5858Z" fill="white"/>
<path d="M8.88895 248.586L8.18184 249.293L8.88895 250L9.59605 249.293L8.88895 248.586Z" fill="white"/>
<path d="M8.88895 239.697L8.18184 240.404L8.88895 241.111L9.59605 240.404L8.88895 239.697Z" fill="white"/>
<path d="M8.88895 230.808L8.18184 231.515L8.88895 232.222L9.59605 231.515L8.88895 230.808Z" fill="white"/>
<path d="M8.88895 221.919L8.18184 222.626L8.88895 223.333L9.59605 222.626L8.88895 221.919Z" fill="white"/>
<path d="M8.88895 213.03L8.18184 213.737L8.88895 214.444L9.59605 213.737L8.88895 213.03Z" fill="white"/>
<path d="M8.88895 204.141L8.18184 204.848L8.88895 205.556L9.59605 204.848L8.88895 204.141Z" fill="white"/>
<path d="M8.88895 195.252L8.18184 195.96L8.88895 196.667L9.59605 195.96L8.88895 195.252Z" fill="white"/>
<path d="M8.88895 186.364L8.18184 187.071L8.88895 187.778L9.59605 187.071L8.88895 186.364Z" fill="white"/>
<path d="M8.88895 177.475L8.18184 178.182L8.88895 178.889L9.59605 178.182L8.88895 177.475Z" fill="white"/>
<path d="M8.88895 168.586L8.18184 169.293L8.88895 170L9.59605 169.293L8.88895 168.586Z" fill="white"/>
<path d="M8.88895 159.697L8.18184 160.404L8.88895 161.111L9.59605 160.404L8.88895 159.697Z" fill="white"/>
<path d="M8.88895 150.808L8.18184 151.515L8.88895 152.222L9.59605 151.515L8.88895 150.808Z" fill="white"/>
<path d="M8.88895 141.919L8.18184 142.626L8.88895 143.333L9.59605 142.626L8.88895 141.919Z" fill="white"/>
<path d="M8.88895 133.03L8.18184 133.737L8.88895 134.444L9.59605 133.737L8.88895 133.03Z" fill="white"/>
<path d="M8.88895 124.141L8.18184 124.848L8.88895 125.556L9.59605 124.848L8.88895 124.141Z" fill="white"/>
<path d="M8.88895 115.253L8.18184 115.96L8.88895 116.667L9.59605 115.96L8.88895 115.253Z" fill="white"/>
<path d="M8.88895 106.364L8.18184 107.071L8.88895 107.778L9.59605 107.071L8.88895 106.364Z" fill="white"/>
<path d="M8.88895 97.4748L8.18184 98.1819L8.88895 98.889L9.59605 98.1819L8.88895 97.4748Z" fill="white"/>
<path d="M8.88895 88.5858L8.18184 89.2929L8.88895 90L9.59605 89.2929L8.88895 88.5858Z" fill="white"/>
<path d="M17.7779 248.586L17.0708 249.293L17.7779 250L18.485 249.293L17.7779 248.586Z" fill="white"/>
<path d="M17.7779 239.697L17.0708 240.404L17.7779 241.111L18.485 240.404L17.7779 239.697Z" fill="white"/>
<path d="M17.7779 230.808L17.0708 231.515L17.7779 232.222L18.485 231.515L17.7779 230.808Z" fill="white"/>
<path d="M17.7779 221.919L17.0708 222.626L17.7779 223.333L18.485 222.626L17.7779 221.919Z" fill="white"/>
<path d="M17.7779 213.03L17.0708 213.737L17.7779 214.444L18.485 213.737L17.7779 213.03Z" fill="white"/>
<path d="M17.7779 204.141L17.0708 204.848L17.7779 205.556L18.485 204.848L17.7779 204.141Z" fill="white"/>
<path d="M17.7779 195.252L17.0708 195.96L17.7779 196.667L18.485 195.96L17.7779 195.252Z" fill="white"/>
<path d="M17.7779 186.364L17.0708 187.071L17.7779 187.778L18.485 187.071L17.7779 186.364Z" fill="white"/>
<path d="M17.7779 177.475L17.0708 178.182L17.7779 178.889L18.485 178.182L17.7779 177.475Z" fill="white"/>
<path d="M17.7779 168.586L17.0708 169.293L17.7779 170L18.485 169.293L17.7779 168.586Z" fill="white"/>
<path d="M17.7779 159.697L17.0708 160.404L17.7779 161.111L18.485 160.404L17.7779 159.697Z" fill="white"/>
<path d="M17.7779 150.808L17.0708 151.515L17.7779 152.222L18.485 151.515L17.7779 150.808Z" fill="white"/>
<path d="M17.7779 141.919L17.0708 142.626L17.7779 143.333L18.485 142.626L17.7779 141.919Z" fill="white"/>
<path d="M17.7779 133.03L17.0708 133.737L17.7779 134.444L18.485 133.737L17.7779 133.03Z" fill="white"/>
<path d="M17.7779 124.141L17.0708 124.848L17.7779 125.556L18.485 124.848L17.7779 124.141Z" fill="white"/>
<path d="M17.7779 115.253L17.0708 115.96L17.7779 116.667L18.485 115.96L17.7779 115.253Z" fill="white"/>
<path d="M17.7779 106.364L17.0708 107.071L17.7779 107.778L18.485 107.071L17.7779 106.364Z" fill="white"/>
<path d="M17.7779 97.4748L17.0708 98.1819L17.7779 98.889L18.485 98.1819L17.7779 97.4748Z" fill="white"/>
<path d="M17.7779 88.5858L17.0708 89.2929L17.7779 90L18.485 89.2929L17.7779 88.5858Z" fill="white"/>
<path d="M26.6668 248.586L25.9597 249.293L26.6668 250L27.3739 249.293L26.6668 248.586Z" fill="white"/>
<path d="M26.6668 239.697L25.9597 240.404L26.6668 241.111L27.3739 240.404L26.6668 239.697Z" fill="white"/>
<path d="M26.6668 230.808L25.9597 231.515L26.6668 232.222L27.3739 231.515L26.6668 230.808Z" fill="white"/>
<path d="M26.6668 221.919L25.9597 222.626L26.6668 223.333L27.3739 222.626L26.6668 221.919Z" fill="white"/>
<path d="M26.6668 213.03L25.9597 213.737L26.6668 214.444L27.3739 213.737L26.6668 213.03Z" fill="white"/>
<path d="M26.6668 204.141L25.9597 204.848L26.6668 205.556L27.3739 204.848L26.6668 204.141Z" fill="white"/>
<path d="M26.6668 195.252L25.9597 195.96L26.6668 196.667L27.3739 195.96L26.6668 195.252Z" fill="white"/>
<path d="M26.6668 186.364L25.9597 187.071L26.6668 187.778L27.3739 187.071L26.6668 186.364Z" fill="white"/>
<path d="M26.6668 177.475L25.9597 178.182L26.6668 178.889L27.3739 178.182L26.6668 177.475Z" fill="white"/>
<path d="M26.6668 168.586L25.9597 169.293L26.6668 170L27.3739 169.293L26.6668 168.586Z" fill="white"/>
<path d="M26.6668 159.697L25.9597 160.404L26.6668 161.111L27.3739 160.404L26.6668 159.697Z" fill="white"/>
<path d="M26.6668 150.808L25.9597 151.515L26.6668 152.222L27.3739 151.515L26.6668 150.808Z" fill="white"/>
<path d="M26.6668 141.919L25.9597 142.626L26.6668 143.333L27.3739 142.626L26.6668 141.919Z" fill="white"/>
<path d="M26.6668 133.03L25.9597 133.737L26.6668 134.444L27.3739 133.737L26.6668 133.03Z" fill="white"/>
<path d="M26.6668 124.141L25.9597 124.848L26.6668 125.556L27.3739 124.848L26.6668 124.141Z" fill="white"/>
<path d="M26.6668 115.253L25.9597 115.96L26.6668 116.667L27.3739 115.96L26.6668 115.253Z" fill="white"/>
<path d="M26.6668 106.364L25.9597 107.071L26.6668 107.778L27.3739 107.071L26.6668 106.364Z" fill="white"/>
<path d="M26.6668 97.4748L25.9597 98.1819L26.6668 98.889L27.3739 98.1819L26.6668 97.4748Z" fill="white"/>
<path d="M26.6668 88.5858L25.9597 89.2929L26.6668 90L27.3739 89.2929L26.6668 88.5858Z" fill="white"/>
<path d="M35.5556 248.586L34.8485 249.293L35.5556 250L36.2627 249.293L35.5556 248.586Z" fill="white"/>
<path d="M35.5556 239.697L34.8485 240.404L35.5556 241.111L36.2627 240.404L35.5556 239.697Z" fill="white"/>
<path d="M35.5556 230.808L34.8485 231.515L35.5556 232.222L36.2627 231.515L35.5556 230.808Z" fill="white"/>
<path d="M35.5556 221.919L34.8485 222.626L35.5556 223.333L36.2627 222.626L35.5556 221.919Z" fill="white"/>
<path d="M35.5556 213.03L34.8485 213.737L35.5556 214.444L36.2627 213.737L35.5556 213.03Z" fill="white"/>
<path d="M35.5556 204.141L34.8485 204.848L35.5556 205.556L36.2627 204.848L35.5556 204.141Z" fill="white"/>
<path d="M35.5556 195.252L34.8485 195.96L35.5556 196.667L36.2627 195.96L35.5556 195.252Z" fill="white"/>
<path d="M35.5556 186.364L34.8485 187.071L35.5556 187.778L36.2627 187.071L35.5556 186.364Z" fill="white"/>
<path d="M35.5556 177.475L34.8485 178.182L35.5556 178.889L36.2627 178.182L35.5556 177.475Z" fill="white"/>
<path d="M35.5556 168.586L34.8485 169.293L35.5556 170L36.2627 169.293L35.5556 168.586Z" fill="white"/>
<path d="M35.5556 159.697L34.8485 160.404L35.5556 161.111L36.2627 160.404L35.5556 159.697Z" fill="white"/>
<path d="M35.5556 150.808L34.8485 151.515L35.5556 152.222L36.2627 151.515L35.5556 150.808Z" fill="white"/>
<path d="M35.5556 141.919L34.8485 142.626L35.5556 143.333L36.2627 142.626L35.5556 141.919Z" fill="white"/>
<path d="M35.5556 133.03L34.8485 133.737L35.5556 134.444L36.2627 133.737L35.5556 133.03Z" fill="white"/>
<path d="M35.5556 124.141L34.8485 124.848L35.5556 125.556L36.2627 124.848L35.5556 124.141Z" fill="white"/>
<path d="M35.5556 115.253L34.8485 115.96L35.5556 116.667L36.2627 115.96L35.5556 115.253Z" fill="white"/>
<path d="M35.5556 106.364L34.8485 107.071L35.5556 107.778L36.2627 107.071L35.5556 106.364Z" fill="white"/>
<path d="M35.5556 97.4748L34.8485 98.1819L35.5556 98.889L36.2627 98.1819L35.5556 97.4748Z" fill="white"/>
<path d="M35.5556 88.5858L34.8485 89.2929L35.5556 90L36.2627 89.2929L35.5556 88.5858Z" fill="white"/>
<path d="M44.4446 248.586L43.7374 249.293L44.4446 250L45.1517 249.293L44.4446 248.586Z" fill="white"/>
<path d="M44.4446 239.697L43.7374 240.404L44.4446 241.111L45.1517 240.404L44.4446 239.697Z" fill="white"/>
<path d="M44.4446 230.808L43.7374 231.515L44.4446 232.222L45.1517 231.515L44.4446 230.808Z" fill="white"/>
<path d="M44.4446 221.919L43.7374 222.626L44.4446 223.333L45.1517 222.626L44.4446 221.919Z" fill="white"/>
<path d="M44.4446 213.03L43.7374 213.737L44.4446 214.444L45.1517 213.737L44.4446 213.03Z" fill="white"/>
<path d="M44.4446 204.141L43.7374 204.848L44.4446 205.556L45.1517 204.848L44.4446 204.141Z" fill="white"/>
<path d="M44.4446 195.252L43.7374 195.96L44.4446 196.667L45.1517 195.96L44.4446 195.252Z" fill="white"/>
<path d="M44.4446 186.364L43.7374 187.071L44.4446 187.778L45.1517 187.071L44.4446 186.364Z" fill="white"/>
<path d="M44.4446 177.475L43.7374 178.182L44.4446 178.889L45.1517 178.182L44.4446 177.475Z" fill="white"/>
<path d="M44.4446 168.586L43.7374 169.293L44.4446 170L45.1517 169.293L44.4446 168.586Z" fill="white"/>
<path d="M44.4446 159.697L43.7374 160.404L44.4446 161.111L45.1517 160.404L44.4446 159.697Z" fill="white"/>
<path d="M44.4446 150.808L43.7374 151.515L44.4446 152.222L45.1517 151.515L44.4446 150.808Z" fill="white"/>
<path d="M44.4446 141.919L43.7374 142.626L44.4446 143.333L45.1517 142.626L44.4446 141.919Z" fill="white"/>
<path d="M44.4446 133.03L43.7374 133.737L44.4446 134.444L45.1517 133.737L44.4446 133.03Z" fill="white"/>
<path d="M44.4446 124.141L43.7374 124.848L44.4446 125.556L45.1517 124.848L44.4446 124.141Z" fill="white"/>
<path d="M44.4446 115.253L43.7374 115.96L44.4446 116.667L45.1517 115.96L44.4446 115.253Z" fill="white"/>
<path d="M44.4446 106.364L43.7374 107.071L44.4446 107.778L45.1517 107.071L44.4446 106.364Z" fill="white"/>
<path d="M44.4446 97.4748L43.7374 98.1819L44.4446 98.889L45.1517 98.1819L44.4446 97.4748Z" fill="white"/>
<path d="M44.4446 88.5858L43.7374 89.2929L44.4446 90L45.1517 89.2929L44.4446 88.5858Z" fill="white"/>
<path d="M53.3335 248.586L52.6264 249.293L53.3335 250L54.0406 249.293L53.3335 248.586Z" fill="white"/>
<path d="M53.3335 239.697L52.6264 240.404L53.3335 241.111L54.0406 240.404L53.3335 239.697Z" fill="white"/>
<path d="M53.3335 230.808L52.6264 231.515L53.3335 232.222L54.0406 231.515L53.3335 230.808Z" fill="white"/>
<path d="M53.3335 221.919L52.6264 222.626L53.3335 223.333L54.0406 222.626L53.3335 221.919Z" fill="white"/>
<path d="M53.3335 213.03L52.6264 213.737L53.3335 214.444L54.0406 213.737L53.3335 213.03Z" fill="white"/>
<path d="M53.3335 204.141L52.6264 204.848L53.3335 205.556L54.0406 204.848L53.3335 204.141Z" fill="white"/>
<path d="M53.3335 195.252L52.6264 195.96L53.3335 196.667L54.0406 195.96L53.3335 195.252Z" fill="white"/>
<path d="M53.3335 186.364L52.6264 187.071L53.3335 187.778L54.0406 187.071L53.3335 186.364Z" fill="white"/>
<path d="M53.3335 177.475L52.6264 178.182L53.3335 178.889L54.0406 178.182L53.3335 177.475Z" fill="white"/>
<path d="M53.3335 168.586L52.6264 169.293L53.3335 170L54.0406 169.293L53.3335 168.586Z" fill="white"/>
<path d="M53.3335 159.697L52.6264 160.404L53.3335 161.111L54.0406 160.404L53.3335 159.697Z" fill="white"/>
<path d="M53.3335 150.808L52.6264 151.515L53.3335 152.222L54.0406 151.515L53.3335 150.808Z" fill="white"/>
<path d="M53.3335 141.919L52.6264 142.626L53.3335 143.333L54.0406 142.626L53.3335 141.919Z" fill="white"/>
<path d="M53.3335 133.03L52.6264 133.737L53.3335 134.444L54.0406 133.737L53.3335 133.03Z" fill="white"/>
<path d="M53.3335 124.141L52.6264 124.848L53.3335 125.556L54.0406 124.848L53.3335 124.141Z" fill="white"/>
<path d="M53.3335 115.253L52.6264 115.96L53.3335 116.667L54.0406 115.96L53.3335 115.253Z" fill="white"/>
<path d="M53.3335 106.364L52.6264 107.071L53.3335 107.778L54.0406 107.071L53.3335 106.364Z" fill="white"/>
<path d="M53.3335 97.4748L52.6264 98.1819L53.3335 98.889L54.0406 98.1819L53.3335 97.4748Z" fill="white"/>
<path d="M53.3335 88.5858L52.6264 89.2929L53.3335 90L54.0406 89.2929L53.3335 88.5858Z" fill="white"/>
<path d="M62.2222 248.586L61.5151 249.293L62.2222 250L62.9293 249.293L62.2222 248.586Z" fill="white"/>
<path d="M62.2222 239.697L61.5151 240.404L62.2222 241.111L62.9293 240.404L62.2222 239.697Z" fill="white"/>
<path d="M62.2222 230.808L61.5151 231.515L62.2222 232.222L62.9293 231.515L62.2222 230.808Z" fill="white"/>
<path d="M62.2222 221.919L61.5151 222.626L62.2222 223.333L62.9293 222.626L62.2222 221.919Z" fill="white"/>
<path d="M62.2222 213.03L61.5151 213.737L62.2222 214.444L62.9293 213.737L62.2222 213.03Z" fill="white"/>
<path d="M62.2222 204.141L61.5151 204.848L62.2222 205.556L62.9293 204.848L62.2222 204.141Z" fill="white"/>
<path d="M62.2222 195.252L61.5151 195.96L62.2222 196.667L62.9293 195.96L62.2222 195.252Z" fill="white"/>
<path d="M62.2222 186.364L61.5151 187.071L62.2222 187.778L62.9293 187.071L62.2222 186.364Z" fill="white"/>
<path d="M62.2222 177.475L61.5151 178.182L62.2222 178.889L62.9293 178.182L62.2222 177.475Z" fill="white"/>
<path d="M62.2222 168.586L61.5151 169.293L62.2222 170L62.9293 169.293L62.2222 168.586Z" fill="white"/>
<path d="M62.2222 159.697L61.5151 160.404L62.2222 161.111L62.9293 160.404L62.2222 159.697Z" fill="white"/>
<path d="M62.2222 150.808L61.5151 151.515L62.2222 152.222L62.9293 151.515L62.2222 150.808Z" fill="white"/>
<path d="M62.2222 141.919L61.5151 142.626L62.2222 143.333L62.9293 142.626L62.2222 141.919Z" fill="white"/>
<path d="M62.2222 133.03L61.5151 133.737L62.2222 134.444L62.9293 133.737L62.2222 133.03Z" fill="white"/>
<path d="M62.2222 124.141L61.5151 124.848L62.2222 125.556L62.9293 124.848L62.2222 124.141Z" fill="white"/>
<path d="M62.2222 115.253L61.5151 115.96L62.2222 116.667L62.9293 115.96L62.2222 115.253Z" fill="white"/>
<path d="M62.2222 106.364L61.5151 107.071L62.2222 107.778L62.9293 107.071L62.2222 106.364Z" fill="white"/>
<path d="M62.2222 97.4748L61.5151 98.1819L62.2222 98.889L62.9293 98.1819L62.2222 97.4748Z" fill="white"/>
<path d="M62.2222 88.5858L61.5151 89.2929L62.2222 90L62.9293 89.2929L62.2222 88.5858Z" fill="white"/>
<path d="M71.1112 248.586L70.4041 249.293L71.1112 250L71.8183 249.293L71.1112 248.586Z" fill="white"/>
<path d="M71.1112 239.697L70.4041 240.404L71.1112 241.111L71.8183 240.404L71.1112 239.697Z" fill="white"/>
<path d="M71.1112 230.808L70.4041 231.515L71.1112 232.222L71.8183 231.515L71.1112 230.808Z" fill="white"/>
<path d="M71.1112 221.919L70.4041 222.626L71.1112 223.333L71.8183 222.626L71.1112 221.919Z" fill="white"/>
<path d="M71.1112 213.03L70.4041 213.737L71.1112 214.444L71.8183 213.737L71.1112 213.03Z" fill="white"/>
<path d="M71.1112 204.141L70.4041 204.848L71.1112 205.556L71.8183 204.848L71.1112 204.141Z" fill="white"/>
<path d="M71.1112 195.252L70.4041 195.96L71.1112 196.667L71.8183 195.96L71.1112 195.252Z" fill="white"/>
<path d="M71.1112 186.364L70.4041 187.071L71.1112 187.778L71.8183 187.071L71.1112 186.364Z" fill="white"/>
<path d="M71.1112 177.475L70.4041 178.182L71.1112 178.889L71.8183 178.182L71.1112 177.475Z" fill="white"/>
<path d="M71.1112 168.586L70.4041 169.293L71.1112 170L71.8183 169.293L71.1112 168.586Z" fill="white"/>
<path d="M71.1112 159.697L70.4041 160.404L71.1112 161.111L71.8183 160.404L71.1112 159.697Z" fill="white"/>
<path d="M71.1112 150.808L70.4041 151.515L71.1112 152.222L71.8183 151.515L71.1112 150.808Z" fill="white"/>
<path d="M71.1112 141.919L70.4041 142.626L71.1112 143.333L71.8183 142.626L71.1112 141.919Z" fill="white"/>
<path d="M71.1112 133.03L70.4041 133.737L71.1112 134.444L71.8183 133.737L71.1112 133.03Z" fill="white"/>
<path d="M71.1112 124.141L70.4041 124.848L71.1112 125.556L71.8183 124.848L71.1112 124.141Z" fill="white"/>
<path d="M71.1112 115.253L70.4041 115.96L71.1112 116.667L71.8183 115.96L71.1112 115.253Z" fill="white"/>
<path d="M71.1112 106.364L70.4041 107.071L71.1112 107.778L71.8183 107.071L71.1112 106.364Z" fill="white"/>
<path d="M71.1112 97.4748L70.4041 98.1819L71.1112 98.889L71.8183 98.1819L71.1112 97.4748Z" fill="white"/>
<path d="M71.1112 88.5858L70.4041 89.2929L71.1112 90L71.8183 89.2929L71.1112 88.5858Z" fill="white"/>
<path d="M80.0002 248.586L79.2931 249.293L80.0002 250L80.7073 249.293L80.0002 248.586Z" fill="white"/>
<path d="M80.0002 239.697L79.2931 240.404L80.0002 241.111L80.7073 240.404L80.0002 239.697Z" fill="white"/>
<path d="M80.0002 230.808L79.2931 231.515L80.0002 232.222L80.7073 231.515L80.0002 230.808Z" fill="white"/>
<path d="M80.0002 221.919L79.2931 222.626L80.0002 223.333L80.7073 222.626L80.0002 221.919Z" fill="white"/>
<path d="M80.0002 213.03L79.2931 213.737L80.0002 214.444L80.7073 213.737L80.0002 213.03Z" fill="white"/>
<path d="M80.0002 204.141L79.2931 204.848L80.0002 205.556L80.7073 204.848L80.0002 204.141Z" fill="white"/>
<path d="M80.0002 195.252L79.2931 195.96L80.0002 196.667L80.7073 195.96L80.0002 195.252Z" fill="white"/>
<path d="M80.0002 186.364L79.2931 187.071L80.0002 187.778L80.7073 187.071L80.0002 186.364Z" fill="white"/>
<path d="M80.0002 177.475L79.2931 178.182L80.0002 178.889L80.7073 178.182L80.0002 177.475Z" fill="white"/>
<path d="M80.0002 168.586L79.2931 169.293L80.0002 170L80.7073 169.293L80.0002 168.586Z" fill="white"/>
<path d="M80.0002 159.697L79.2931 160.404L80.0002 161.111L80.7073 160.404L80.0002 159.697Z" fill="white"/>
<path d="M80.0002 150.808L79.2931 151.515L80.0002 152.222L80.7073 151.515L80.0002 150.808Z" fill="white"/>
<path d="M80.0002 141.919L79.2931 142.626L80.0002 143.333L80.7073 142.626L80.0002 141.919Z" fill="white"/>
<path d="M80.0002 133.03L79.2931 133.737L80.0002 134.444L80.7073 133.737L80.0002 133.03Z" fill="white"/>
<path d="M80.0002 124.141L79.2931 124.848L80.0002 125.556L80.7073 124.848L80.0002 124.141Z" fill="white"/>
<path d="M80.0002 115.253L79.2931 115.96L80.0002 116.667L80.7073 115.96L80.0002 115.253Z" fill="white"/>
<path d="M80.0002 106.364L79.2931 107.071L80.0002 107.778L80.7073 107.071L80.0002 106.364Z" fill="white"/>
<path d="M80.0002 97.4748L79.2931 98.1819L80.0002 98.889L80.7073 98.1819L80.0002 97.4748Z" fill="white"/>
<path d="M80.0002 88.5858L79.2931 89.2929L80.0002 90L80.7073 89.2929L80.0002 88.5858Z" fill="white"/>
<path d="M88.889 248.586L88.1819 249.293L88.889 250L89.5961 249.293L88.889 248.586Z" fill="white"/>
<path d="M88.889 239.697L88.1819 240.404L88.889 241.111L89.5961 240.404L88.889 239.697Z" fill="white"/>
<path d="M88.889 230.808L88.1819 231.515L88.889 232.222L89.5961 231.515L88.889 230.808Z" fill="white"/>
<path d="M88.889 221.919L88.1819 222.626L88.889 223.333L89.5961 222.626L88.889 221.919Z" fill="white"/>
<path d="M88.889 213.03L88.1819 213.737L88.889 214.444L89.5961 213.737L88.889 213.03Z" fill="white"/>
<path d="M88.889 204.141L88.1819 204.848L88.889 205.556L89.5961 204.848L88.889 204.141Z" fill="white"/>
<path d="M88.889 195.252L88.1819 195.96L88.889 196.667L89.5961 195.96L88.889 195.252Z" fill="white"/>
<path d="M88.889 186.364L88.1819 187.071L88.889 187.778L89.5961 187.071L88.889 186.364Z" fill="white"/>
<path d="M88.889 177.475L88.1819 178.182L88.889 178.889L89.5961 178.182L88.889 177.475Z" fill="white"/>
<path d="M88.889 168.586L88.1819 169.293L88.889 170L89.5961 169.293L88.889 168.586Z" fill="white"/>
<path d="M88.889 159.697L88.1819 160.404L88.889 161.111L89.5961 160.404L88.889 159.697Z" fill="white"/>
<path d="M88.889 150.808L88.1819 151.515L88.889 152.222L89.5961 151.515L88.889 150.808Z" fill="white"/>
<path d="M88.889 141.919L88.1819 142.626L88.889 143.333L89.5961 142.626L88.889 141.919Z" fill="white"/>
<path d="M88.889 133.03L88.1819 133.737L88.889 134.444L89.5961 133.737L88.889 133.03Z" fill="white"/>
<path d="M88.889 124.141L88.1819 124.848L88.889 125.556L89.5961 124.848L88.889 124.141Z" fill="white"/>
<path d="M88.889 115.253L88.1819 115.96L88.889 116.667L89.5961 115.96L88.889 115.253Z" fill="white"/>
<path d="M88.889 106.364L88.1819 107.071L88.889 107.778L89.5961 107.071L88.889 106.364Z" fill="white"/>
<path d="M88.889 97.4748L88.1819 98.1819L88.889 98.889L89.5961 98.1819L88.889 97.4748Z" fill="white"/>
<path d="M88.889 88.5858L88.1819 89.2929L88.889 90L89.5961 89.2929L88.889 88.5858Z" fill="white"/>
<path d="M97.7778 248.586L97.0707 249.293L97.7778 250L98.4849 249.293L97.7778 248.586Z" fill="white"/>
<path d="M97.7778 239.697L97.0707 240.404L97.7778 241.111L98.4849 240.404L97.7778 239.697Z" fill="white"/>
<path d="M97.7778 230.808L97.0707 231.515L97.7778 232.222L98.4849 231.515L97.7778 230.808Z" fill="white"/>
<path d="M97.7778 221.919L97.0707 222.626L97.7778 223.333L98.4849 222.626L97.7778 221.919Z" fill="white"/>
<path d="M97.7778 213.03L97.0707 213.737L97.7778 214.444L98.4849 213.737L97.7778 213.03Z" fill="white"/>
<path d="M97.7778 204.141L97.0707 204.848L97.7778 205.556L98.4849 204.848L97.7778 204.141Z" fill="white"/>
<path d="M97.7778 195.252L97.0707 195.96L97.7778 196.667L98.4849 195.96L97.7778 195.252Z" fill="white"/>
<path d="M97.7778 186.364L97.0707 187.071L97.7778 187.778L98.4849 187.071L97.7778 186.364Z" fill="white"/>
<path d="M97.7778 177.475L97.0707 178.182L97.7778 178.889L98.4849 178.182L97.7778 177.475Z" fill="white"/>
<path d="M97.7778 168.586L97.0707 169.293L97.7778 170L98.4849 169.293L97.7778 168.586Z" fill="white"/>
<path d="M97.7778 159.697L97.0707 160.404L97.7778 161.111L98.4849 160.404L97.7778 159.697Z" fill="white"/>
<path d="M97.7778 150.808L97.0707 151.515L97.7778 152.222L98.4849 151.515L97.7778 150.808Z" fill="white"/>
<path d="M97.7778 141.919L97.0707 142.626L97.7778 143.333L98.4849 142.626L97.7778 141.919Z" fill="white"/>
<path d="M97.7778 133.03L97.0707 133.737L97.7778 134.444L98.4849 133.737L97.7778 133.03Z" fill="white"/>
<path d="M97.7778 124.141L97.0707 124.848L97.7778 125.556L98.4849 124.848L97.7778 124.141Z" fill="white"/>
<path d="M97.7778 115.253L97.0707 115.96L97.7778 116.667L98.4849 115.96L97.7778 115.253Z" fill="white"/>
<path d="M97.7778 106.364L97.0707 107.071L97.7778 107.778L98.4849 107.071L97.7778 106.364Z" fill="white"/>
<path d="M97.7778 97.4748L97.0707 98.1819L97.7778 98.889L98.4849 98.1819L97.7778 97.4748Z" fill="white"/>
<path d="M97.7778 88.5858L97.0707 89.2929L97.7778 90L98.4849 89.2929L97.7778 88.5858Z" fill="white"/>
<path d="M106.667 248.586L105.96 249.293L106.667 250L107.374 249.293L106.667 248.586Z" fill="white"/>
<path d="M106.667 239.697L105.96 240.404L106.667 241.111L107.374 240.404L106.667 239.697Z" fill="white"/>
<path d="M106.667 230.808L105.96 231.515L106.667 232.222L107.374 231.515L106.667 230.808Z" fill="white"/>
<path d="M106.667 221.919L105.96 222.626L106.667 223.333L107.374 222.626L106.667 221.919Z" fill="white"/>
<path d="M106.667 213.03L105.96 213.737L106.667 214.444L107.374 213.737L106.667 213.03Z" fill="white"/>
<path d="M106.667 204.141L105.96 204.848L106.667 205.556L107.374 204.848L106.667 204.141Z" fill="white"/>
<path d="M106.667 195.252L105.96 195.96L106.667 196.667L107.374 195.96L106.667 195.252Z" fill="white"/>
<path d="M106.667 186.364L105.96 187.071L106.667 187.778L107.374 187.071L106.667 186.364Z" fill="white"/>
<path d="M106.667 177.475L105.96 178.182L106.667 178.889L107.374 178.182L106.667 177.475Z" fill="white"/>
<path d="M106.667 168.586L105.96 169.293L106.667 170L107.374 169.293L106.667 168.586Z" fill="white"/>
<path d="M106.667 159.697L105.96 160.404L106.667 161.111L107.374 160.404L106.667 159.697Z" fill="white"/>
<path d="M106.667 150.808L105.96 151.515L106.667 152.222L107.374 151.515L106.667 150.808Z" fill="white"/>
<path d="M106.667 141.919L105.96 142.626L106.667 143.333L107.374 142.626L106.667 141.919Z" fill="white"/>
<path d="M106.667 133.03L105.96 133.737L106.667 134.444L107.374 133.737L106.667 133.03Z" fill="white"/>
<path d="M106.667 124.141L105.96 124.848L106.667 125.556L107.374 124.848L106.667 124.141Z" fill="white"/>
<path d="M106.667 115.253L105.96 115.96L106.667 116.667L107.374 115.96L106.667 115.253Z" fill="white"/>
<path d="M106.667 106.364L105.96 107.071L106.667 107.778L107.374 107.071L106.667 106.364Z" fill="white"/>
<path d="M106.667 97.4748L105.96 98.1819L106.667 98.889L107.374 98.1819L106.667 97.4748Z" fill="white"/>
<path d="M106.667 88.5858L105.96 89.2929L106.667 90L107.374 89.2929L106.667 88.5858Z" fill="white"/>
<path d="M115.556 248.586L114.849 249.293L115.556 250L116.263 249.293L115.556 248.586Z" fill="white"/>
<path d="M115.556 239.697L114.849 240.404L115.556 241.111L116.263 240.404L115.556 239.697Z" fill="white"/>
<path d="M115.556 230.808L114.849 231.515L115.556 232.222L116.263 231.515L115.556 230.808Z" fill="white"/>
<path d="M115.556 221.919L114.849 222.626L115.556 223.333L116.263 222.626L115.556 221.919Z" fill="white"/>
<path d="M115.556 213.03L114.849 213.737L115.556 214.444L116.263 213.737L115.556 213.03Z" fill="white"/>
<path d="M115.556 204.141L114.849 204.848L115.556 205.556L116.263 204.848L115.556 204.141Z" fill="white"/>
<path d="M115.556 195.252L114.849 195.96L115.556 196.667L116.263 195.96L115.556 195.252Z" fill="white"/>
<path d="M115.556 186.364L114.849 187.071L115.556 187.778L116.263 187.071L115.556 186.364Z" fill="white"/>
<path d="M115.556 177.475L114.849 178.182L115.556 178.889L116.263 178.182L115.556 177.475Z" fill="white"/>
<path d="M115.556 168.586L114.849 169.293L115.556 170L116.263 169.293L115.556 168.586Z" fill="white"/>
<path d="M115.556 159.697L114.849 160.404L115.556 161.111L116.263 160.404L115.556 159.697Z" fill="white"/>
<path d="M115.556 150.808L114.849 151.515L115.556 152.222L116.263 151.515L115.556 150.808Z" fill="white"/>
<path d="M115.556 141.919L114.849 142.626L115.556 143.333L116.263 142.626L115.556 141.919Z" fill="white"/>
<path d="M115.556 133.03L114.849 133.737L115.556 134.444L116.263 133.737L115.556 133.03Z" fill="white"/>
<path d="M115.556 124.141L114.849 124.848L115.556 125.556L116.263 124.848L115.556 124.141Z" fill="white"/>
<path d="M115.556 115.253L114.849 115.96L115.556 116.667L116.263 115.96L115.556 115.253Z" fill="white"/>
<path d="M115.556 106.364L114.849 107.071L115.556 107.778L116.263 107.071L115.556 106.364Z" fill="white"/>
<path d="M115.556 97.4748L114.849 98.1819L115.556 98.889L116.263 98.1819L115.556 97.4748Z" fill="white"/>
<path d="M115.556 88.5858L114.849 89.2929L115.556 90L116.263 89.2929L115.556 88.5858Z" fill="white"/>
<path d="M124.444 248.586L123.737 249.293L124.444 250L125.152 249.293L124.444 248.586Z" fill="white"/>
<path d="M124.444 239.697L123.737 240.404L124.444 241.111L125.152 240.404L124.444 239.697Z" fill="white"/>
<path d="M124.444 230.808L123.737 231.515L124.444 232.222L125.152 231.515L124.444 230.808Z" fill="white"/>
<path d="M124.444 221.919L123.737 222.626L124.444 223.333L125.152 222.626L124.444 221.919Z" fill="white"/>
<path d="M124.444 213.03L123.737 213.737L124.444 214.444L125.152 213.737L124.444 213.03Z" fill="white"/>
<path d="M124.444 204.141L123.737 204.848L124.444 205.556L125.152 204.848L124.444 204.141Z" fill="white"/>
<path d="M124.444 195.252L123.737 195.96L124.444 196.667L125.152 195.96L124.444 195.252Z" fill="white"/>
<path d="M124.444 186.364L123.737 187.071L124.444 187.778L125.152 187.071L124.444 186.364Z" fill="white"/>
<path d="M124.444 177.475L123.737 178.182L124.444 178.889L125.152 178.182L124.444 177.475Z" fill="white"/>
<path d="M124.444 168.586L123.737 169.293L124.444 170L125.152 169.293L124.444 168.586Z" fill="white"/>
<path d="M124.444 159.697L123.737 160.404L124.444 161.111L125.152 160.404L124.444 159.697Z" fill="white"/>
<path d="M124.444 150.808L123.737 151.515L124.444 152.222L125.152 151.515L124.444 150.808Z" fill="white"/>
<path d="M124.444 141.919L123.737 142.626L124.444 143.333L125.152 142.626L124.444 141.919Z" fill="white"/>
<path d="M124.444 133.03L123.737 133.737L124.444 134.444L125.152 133.737L124.444 133.03Z" fill="white"/>
<path d="M124.444 124.141L123.737 124.848L124.444 125.556L125.152 124.848L124.444 124.141Z" fill="white"/>
<path d="M124.444 115.253L123.737 115.96L124.444 116.667L125.152 115.96L124.444 115.253Z" fill="white"/>
<path d="M124.444 106.364L123.737 107.071L124.444 107.778L125.152 107.071L124.444 106.364Z" fill="white"/>
<path d="M124.444 97.4748L123.737 98.1819L124.444 98.889L125.152 98.1819L124.444 97.4748Z" fill="white"/>
<path d="M124.444 88.5858L123.737 89.2929L124.444 90L125.152 89.2929L124.444 88.5858Z" fill="white"/>
<path d="M133.334 248.586L132.626 249.293L133.334 250L134.041 249.293L133.334 248.586Z" fill="white"/>
<path d="M133.334 239.697L132.626 240.404L133.334 241.111L134.041 240.404L133.334 239.697Z" fill="white"/>
<path d="M133.334 230.808L132.626 231.515L133.334 232.222L134.041 231.515L133.334 230.808Z" fill="white"/>
<path d="M133.334 221.919L132.626 222.626L133.334 223.333L134.041 222.626L133.334 221.919Z" fill="white"/>
<path d="M133.334 213.03L132.626 213.737L133.334 214.444L134.041 213.737L133.334 213.03Z" fill="white"/>
<path d="M133.334 204.141L132.626 204.848L133.334 205.556L134.041 204.848L133.334 204.141Z" fill="white"/>
<path d="M133.334 195.252L132.626 195.96L133.334 196.667L134.041 195.96L133.334 195.252Z" fill="white"/>
<path d="M133.334 186.364L132.626 187.071L133.334 187.778L134.041 187.071L133.334 186.364Z" fill="white"/>
<path d="M133.334 177.475L132.626 178.182L133.334 178.889L134.041 178.182L133.334 177.475Z" fill="white"/>
<path d="M133.334 168.586L132.626 169.293L133.334 170L134.041 169.293L133.334 168.586Z" fill="white"/>
<path d="M133.334 159.697L132.626 160.404L133.334 161.111L134.041 160.404L133.334 159.697Z" fill="white"/>
<path d="M133.334 150.808L132.626 151.515L133.334 152.222L134.041 151.515L133.334 150.808Z" fill="white"/>
<path d="M133.334 141.919L132.626 142.626L133.334 143.333L134.041 142.626L133.334 141.919Z" fill="white"/>
<path d="M133.334 133.03L132.626 133.737L133.334 134.444L134.041 133.737L133.334 133.03Z" fill="white"/>
<path d="M133.334 124.141L132.626 124.848L133.334 125.556L134.041 124.848L133.334 124.141Z" fill="white"/>
<path d="M133.334 115.253L132.626 115.96L133.334 116.667L134.041 115.96L133.334 115.253Z" fill="white"/>
<path d="M133.334 106.364L132.626 107.071L133.334 107.778L134.041 107.071L133.334 106.364Z" fill="white"/>
<path d="M133.334 97.4748L132.626 98.1819L133.334 98.889L134.041 98.1819L133.334 97.4748Z" fill="white"/>
<path d="M133.334 88.5858L132.626 89.2929L133.334 90L134.041 89.2929L133.334 88.5858Z" fill="white"/>
<path d="M142.222 248.586L141.515 249.293L142.222 250L142.929 249.293L142.222 248.586Z" fill="white"/>
<path d="M142.222 239.697L141.515 240.404L142.222 241.111L142.929 240.404L142.222 239.697Z" fill="white"/>
<path d="M142.222 230.808L141.515 231.515L142.222 232.222L142.929 231.515L142.222 230.808Z" fill="white"/>
<path d="M142.222 221.919L141.515 222.626L142.222 223.333L142.929 222.626L142.222 221.919Z" fill="white"/>
<path d="M142.222 213.03L141.515 213.737L142.222 214.444L142.929 213.737L142.222 213.03Z" fill="white"/>
<path d="M142.222 204.141L141.515 204.848L142.222 205.556L142.929 204.848L142.222 204.141Z" fill="white"/>
<path d="M142.222 195.252L141.515 195.96L142.222 196.667L142.929 195.96L142.222 195.252Z" fill="white"/>
<path d="M142.222 186.364L141.515 187.071L142.222 187.778L142.929 187.071L142.222 186.364Z" fill="white"/>
<path d="M142.222 177.475L141.515 178.182L142.222 178.889L142.929 178.182L142.222 177.475Z" fill="white"/>
<path d="M142.222 168.586L141.515 169.293L142.222 170L142.929 169.293L142.222 168.586Z" fill="white"/>
<path d="M142.222 159.697L141.515 160.404L142.222 161.111L142.929 160.404L142.222 159.697Z" fill="white"/>
<path d="M142.222 150.808L141.515 151.515L142.222 152.222L142.929 151.515L142.222 150.808Z" fill="white"/>
<path d="M142.222 141.919L141.515 142.626L142.222 143.333L142.929 142.626L142.222 141.919Z" fill="white"/>
<path d="M142.222 133.03L141.515 133.737L142.222 134.444L142.929 133.737L142.222 133.03Z" fill="white"/>
<path d="M142.222 124.141L141.515 124.848L142.222 125.556L142.929 124.848L142.222 124.141Z" fill="white"/>
<path d="M142.222 115.253L141.515 115.96L142.222 116.667L142.929 115.96L142.222 115.253Z" fill="white"/>
<path d="M142.222 106.364L141.515 107.071L142.222 107.778L142.929 107.071L142.222 106.364Z" fill="white"/>
<path d="M142.222 97.4748L141.515 98.1819L142.222 98.889L142.929 98.1819L142.222 97.4748Z" fill="white"/>
<path d="M142.222 88.5858L141.515 89.2929L142.222 90L142.929 89.2929L142.222 88.5858Z" fill="white"/>
<path d="M151.111 248.586L150.404 249.293L151.111 250L151.818 249.293L151.111 248.586Z" fill="white"/>
<path d="M151.111 239.697L150.404 240.404L151.111 241.111L151.818 240.404L151.111 239.697Z" fill="white"/>
<path d="M151.111 230.808L150.404 231.515L151.111 232.222L151.818 231.515L151.111 230.808Z" fill="white"/>
<path d="M151.111 221.919L150.404 222.626L151.111 223.333L151.818 222.626L151.111 221.919Z" fill="white"/>
<path d="M151.111 213.03L150.404 213.737L151.111 214.444L151.818 213.737L151.111 213.03Z" fill="white"/>
<path d="M151.111 204.141L150.404 204.848L151.111 205.556L151.818 204.848L151.111 204.141Z" fill="white"/>
<path d="M151.111 195.252L150.404 195.96L151.111 196.667L151.818 195.96L151.111 195.252Z" fill="white"/>
<path d="M151.111 186.364L150.404 187.071L151.111 187.778L151.818 187.071L151.111 186.364Z" fill="white"/>
<path d="M151.111 177.475L150.404 178.182L151.111 178.889L151.818 178.182L151.111 177.475Z" fill="white"/>
<path d="M151.111 168.586L150.404 169.293L151.111 170L151.818 169.293L151.111 168.586Z" fill="white"/>
<path d="M151.111 159.697L150.404 160.404L151.111 161.111L151.818 160.404L151.111 159.697Z" fill="white"/>
<path d="M151.111 150.808L150.404 151.515L151.111 152.222L151.818 151.515L151.111 150.808Z" fill="white"/>
<path d="M151.111 141.919L150.404 142.626L151.111 143.333L151.818 142.626L151.111 141.919Z" fill="white"/>
<path d="M151.111 133.03L150.404 133.737L151.111 134.444L151.818 133.737L151.111 133.03Z" fill="white"/>
<path d="M151.111 124.141L150.404 124.848L151.111 125.556L151.818 124.848L151.111 124.141Z" fill="white"/>
<path d="M151.111 115.253L150.404 115.96L151.111 116.667L151.818 115.96L151.111 115.253Z" fill="white"/>
<path d="M151.111 106.364L150.404 107.071L151.111 107.778L151.818 107.071L151.111 106.364Z" fill="white"/>
<path d="M151.111 97.4748L150.404 98.1819L151.111 98.889L151.818 98.1819L151.111 97.4748Z" fill="white"/>
<path d="M151.111 88.5858L150.404 89.2929L151.111 90L151.818 89.2929L151.111 88.5858Z" fill="white"/>
<path d="M160 248.586L159.293 249.293L160 250L160.707 249.293L160 248.586Z" fill="white"/>
<path d="M160 239.697L159.293 240.404L160 241.111L160.707 240.404L160 239.697Z" fill="white"/>
<path d="M160 230.808L159.293 231.515L160 232.222L160.707 231.515L160 230.808Z" fill="white"/>
<path d="M160 221.919L159.293 222.626L160 223.333L160.707 222.626L160 221.919Z" fill="white"/>
<path d="M160 213.03L159.293 213.737L160 214.444L160.707 213.737L160 213.03Z" fill="white"/>
<path d="M160 204.141L159.293 204.848L160 205.556L160.707 204.848L160 204.141Z" fill="white"/>
<path d="M160 195.252L159.293 195.96L160 196.667L160.707 195.96L160 195.252Z" fill="white"/>
<path d="M160 186.364L159.293 187.071L160 187.778L160.707 187.071L160 186.364Z" fill="white"/>
<path d="M160 177.475L159.293 178.182L160 178.889L160.707 178.182L160 177.475Z" fill="white"/>
<path d="M160 168.586L159.293 169.293L160 170L160.707 169.293L160 168.586Z" fill="white"/>
<path d="M160 159.697L159.293 160.404L160 161.111L160.707 160.404L160 159.697Z" fill="white"/>
<path d="M160 150.808L159.293 151.515L160 152.222L160.707 151.515L160 150.808Z" fill="white"/>
<path d="M160 141.919L159.293 142.626L160 143.333L160.707 142.626L160 141.919Z" fill="white"/>
<path d="M160 133.03L159.293 133.737L160 134.444L160.707 133.737L160 133.03Z" fill="white"/>
<path d="M160 124.141L159.293 124.848L160 125.556L160.707 124.848L160 124.141Z" fill="white"/>
<path d="M160 115.253L159.293 115.96L160 116.667L160.707 115.96L160 115.253Z" fill="white"/>
<path d="M160 106.364L159.293 107.071L160 107.778L160.707 107.071L160 106.364Z" fill="white"/>
<path d="M160 97.4748L159.293 98.1819L160 98.889L160.707 98.1819L160 97.4748Z" fill="white"/>
<path d="M160 88.5858L159.293 89.2929L160 90L160.707 89.2929L160 88.5858Z" fill="white"/>
<path d="M1.44839e-05 159.696L-0.707092 160.403L1.44839e-05 161.11L0.707121 160.403L1.44839e-05 159.696Z" fill="white"/>
<path d="M1.44839e-05 150.807L-0.707092 151.514L1.44839e-05 152.221L0.707121 151.514L1.44839e-05 150.807Z" fill="white"/>
<path d="M1.44839e-05 141.918L-0.707092 142.625L1.44839e-05 143.332L0.707121 142.625L1.44839e-05 141.918Z" fill="white"/>
<path d="M1.44839e-05 133.029L-0.707092 133.736L1.44839e-05 134.443L0.707121 133.736L1.44839e-05 133.029Z" fill="white"/>
<path d="M1.44839e-05 124.14L-0.707092 124.847L1.44839e-05 125.554L0.707121 124.847L1.44839e-05 124.14Z" fill="white"/>
<path d="M1.44839e-05 115.251L-0.707092 115.958L1.44839e-05 116.666L0.707121 115.958L1.44839e-05 115.251Z" fill="white"/>
<path d="M1.44839e-05 106.362L-0.707092 107.069L1.44839e-05 107.777L0.707121 107.069L1.44839e-05 106.362Z" fill="white"/>
<path d="M1.44839e-05 97.4736L-0.707092 98.1807L1.44839e-05 98.8878L0.707121 98.1807L1.44839e-05 97.4736Z" fill="white"/>
<path d="M1.44839e-05 88.5847L-0.707092 89.2917L1.44839e-05 89.9989L0.707121 89.2917L1.44839e-05 88.5847Z" fill="white"/>
<path d="M1.44839e-05 79.6957L-0.707092 80.4028L1.44839e-05 81.1099L0.707121 80.4028L1.44839e-05 79.6957Z" fill="white"/>
<path d="M1.44839e-05 70.8069L-0.707092 71.514L1.44839e-05 72.2211L0.707121 71.514L1.44839e-05 70.8069Z" fill="white"/>
<path d="M1.44839e-05 61.918L-0.707092 62.6251L1.44839e-05 63.3322L0.707121 62.6251L1.44839e-05 61.918Z" fill="white"/>
<path d="M1.44839e-05 53.029L-0.707092 53.7361L1.44839e-05 54.4432L0.707121 53.7361L1.44839e-05 53.029Z" fill="white"/>
<path d="M1.44839e-05 44.1402L-0.707092 44.8473L1.44839e-05 45.5544L0.707121 44.8473L1.44839e-05 44.1402Z" fill="white"/>
<path d="M1.44839e-05 35.2513L-0.707092 35.9584L1.44839e-05 36.6655L0.707121 35.9584L1.44839e-05 35.2513Z" fill="white"/>
<path d="M1.44839e-05 26.3625L-0.707092 27.0695L1.44839e-05 27.7767L0.707121 27.0695L1.44839e-05 26.3625Z" fill="white"/>
<path d="M1.44839e-05 17.4735L-0.707092 18.1806L1.44839e-05 18.8877L0.707121 18.1806L1.44839e-05 17.4735Z" fill="white"/>
<path d="M1.44839e-05 8.5847L-0.707092 9.29181L1.44839e-05 9.9989L0.707121 9.29181L1.44839e-05 8.5847Z" fill="white"/>
<path d="M1.44839e-05 -0.304214L-0.707092 0.402893L1.44839e-05 1.10999L0.707121 0.402893L1.44839e-05 -0.304214Z" fill="white"/>
<path d="M8.88894 159.696L8.18183 160.403L8.88894 161.11L9.59605 160.403L8.88894 159.696Z" fill="white"/>
<path d="M8.88894 150.807L8.18183 151.514L8.88894 152.221L9.59605 151.514L8.88894 150.807Z" fill="white"/>
<path d="M8.88894 141.918L8.18183 142.625L8.88894 143.332L9.59605 142.625L8.88894 141.918Z" fill="white"/>
<path d="M8.88894 133.029L8.18183 133.736L8.88894 134.443L9.59605 133.736L8.88894 133.029Z" fill="white"/>
<path d="M8.88894 124.14L8.18183 124.847L8.88894 125.554L9.59605 124.847L8.88894 124.14Z" fill="white"/>
<path d="M8.88894 115.251L8.18183 115.958L8.88894 116.666L9.59605 115.958L8.88894 115.251Z" fill="white"/>
<path d="M8.88894 106.362L8.18183 107.069L8.88894 107.777L9.59605 107.069L8.88894 106.362Z" fill="white"/>
<path d="M8.88894 97.4736L8.18183 98.1807L8.88894 98.8878L9.59605 98.1807L8.88894 97.4736Z" fill="white"/>
<path d="M8.88894 88.5847L8.18183 89.2917L8.88894 89.9989L9.59605 89.2917L8.88894 88.5847Z" fill="white"/>
<path d="M8.88894 79.6957L8.18183 80.4028L8.88894 81.1099L9.59605 80.4028L8.88894 79.6957Z" fill="white"/>
<path d="M8.88894 70.8069L8.18183 71.514L8.88894 72.2211L9.59605 71.514L8.88894 70.8069Z" fill="white"/>
<path d="M8.88894 61.918L8.18183 62.6251L8.88894 63.3322L9.59605 62.6251L8.88894 61.918Z" fill="white"/>
<path d="M8.88894 53.029L8.18183 53.7361L8.88894 54.4432L9.59605 53.7361L8.88894 53.029Z" fill="white"/>
<path d="M8.88894 44.1402L8.18183 44.8473L8.88894 45.5544L9.59605 44.8473L8.88894 44.1402Z" fill="white"/>
<path d="M8.88894 35.2513L8.18183 35.9584L8.88894 36.6655L9.59605 35.9584L8.88894 35.2513Z" fill="white"/>
<path d="M8.88894 26.3625L8.18183 27.0695L8.88894 27.7767L9.59605 27.0695L8.88894 26.3625Z" fill="white"/>
<path d="M8.88894 17.4735L8.18183 18.1806L8.88894 18.8877L9.59605 18.1806L8.88894 17.4735Z" fill="white"/>
<path d="M8.88894 8.5847L8.18183 9.29181L8.88894 9.9989L9.59605 9.29181L8.88894 8.5847Z" fill="white"/>
<path d="M8.88894 -0.304214L8.18183 0.402893L8.88894 1.10999L9.59605 0.402893L8.88894 -0.304214Z" fill="white"/>
<path d="M17.7779 159.696L17.0708 160.403L17.7779 161.11L18.485 160.403L17.7779 159.696Z" fill="white"/>
<path d="M17.7779 150.807L17.0708 151.514L17.7779 152.221L18.485 151.514L17.7779 150.807Z" fill="white"/>
<path d="M17.7779 141.918L17.0708 142.625L17.7779 143.332L18.485 142.625L17.7779 141.918Z" fill="white"/>
<path d="M17.7779 133.029L17.0708 133.736L17.7779 134.443L18.485 133.736L17.7779 133.029Z" fill="white"/>
<path d="M17.7779 124.14L17.0708 124.847L17.7779 125.554L18.485 124.847L17.7779 124.14Z" fill="white"/>
<path d="M17.7779 115.251L17.0708 115.958L17.7779 116.666L18.485 115.958L17.7779 115.251Z" fill="white"/>
<path d="M17.7779 106.362L17.0708 107.069L17.7779 107.777L18.485 107.069L17.7779 106.362Z" fill="white"/>
<path d="M17.7779 97.4736L17.0708 98.1807L17.7779 98.8878L18.485 98.1807L17.7779 97.4736Z" fill="white"/>
<path d="M17.7779 88.5847L17.0708 89.2917L17.7779 89.9989L18.485 89.2917L17.7779 88.5847Z" fill="white"/>
<path d="M17.7779 79.6957L17.0708 80.4028L17.7779 81.1099L18.485 80.4028L17.7779 79.6957Z" fill="white"/>
<path d="M17.7779 70.8069L17.0708 71.514L17.7779 72.2211L18.485 71.514L17.7779 70.8069Z" fill="white"/>
<path d="M17.7779 61.918L17.0708 62.6251L17.7779 63.3322L18.485 62.6251L17.7779 61.918Z" fill="white"/>
<path d="M17.7779 53.029L17.0708 53.7361L17.7779 54.4432L18.485 53.7361L17.7779 53.029Z" fill="white"/>
<path d="M17.7779 44.1402L17.0708 44.8473L17.7779 45.5544L18.485 44.8473L17.7779 44.1402Z" fill="white"/>
<path d="M17.7779 35.2513L17.0708 35.9584L17.7779 36.6655L18.485 35.9584L17.7779 35.2513Z" fill="white"/>
<path d="M17.7779 26.3625L17.0708 27.0695L17.7779 27.7767L18.485 27.0695L17.7779 26.3625Z" fill="white"/>
<path d="M17.7779 17.4735L17.0708 18.1806L17.7779 18.8877L18.485 18.1806L17.7779 17.4735Z" fill="white"/>
<path d="M17.7779 8.5847L17.0708 9.29181L17.7779 9.9989L18.485 9.29181L17.7779 8.5847Z" fill="white"/>
<path d="M17.7779 -0.304214L17.0708 0.402893L17.7779 1.10999L18.485 0.402893L17.7779 -0.304214Z" fill="white"/>
<path d="M26.6668 159.696L25.9597 160.403L26.6668 161.11L27.3739 160.403L26.6668 159.696Z" fill="white"/>
<path d="M26.6668 150.807L25.9597 151.514L26.6668 152.221L27.3739 151.514L26.6668 150.807Z" fill="white"/>
<path d="M26.6668 141.918L25.9597 142.625L26.6668 143.332L27.3739 142.625L26.6668 141.918Z" fill="white"/>
<path d="M26.6668 133.029L25.9597 133.736L26.6668 134.443L27.3739 133.736L26.6668 133.029Z" fill="white"/>
<path d="M26.6668 124.14L25.9597 124.847L26.6668 125.554L27.3739 124.847L26.6668 124.14Z" fill="white"/>
<path d="M26.6668 115.251L25.9597 115.958L26.6668 116.666L27.3739 115.958L26.6668 115.251Z" fill="white"/>
<path d="M26.6668 106.362L25.9597 107.069L26.6668 107.777L27.3739 107.069L26.6668 106.362Z" fill="white"/>
<path d="M26.6668 97.4736L25.9597 98.1807L26.6668 98.8878L27.3739 98.1807L26.6668 97.4736Z" fill="white"/>
<path d="M26.6668 88.5847L25.9597 89.2917L26.6668 89.9989L27.3739 89.2917L26.6668 88.5847Z" fill="white"/>
<path d="M26.6668 79.6957L25.9597 80.4028L26.6668 81.1099L27.3739 80.4028L26.6668 79.6957Z" fill="white"/>
<path d="M26.6668 70.8069L25.9597 71.514L26.6668 72.2211L27.3739 71.514L26.6668 70.8069Z" fill="white"/>
<path d="M26.6668 61.918L25.9597 62.6251L26.6668 63.3322L27.3739 62.6251L26.6668 61.918Z" fill="white"/>
<path d="M26.6668 53.029L25.9597 53.7361L26.6668 54.4432L27.3739 53.7361L26.6668 53.029Z" fill="white"/>
<path d="M26.6668 44.1402L25.9597 44.8473L26.6668 45.5544L27.3739 44.8473L26.6668 44.1402Z" fill="white"/>
<path d="M26.6668 35.2513L25.9597 35.9584L26.6668 36.6655L27.3739 35.9584L26.6668 35.2513Z" fill="white"/>
<path d="M26.6668 26.3625L25.9597 27.0695L26.6668 27.7767L27.3739 27.0695L26.6668 26.3625Z" fill="white"/>
<path d="M26.6668 17.4735L25.9597 18.1806L26.6668 18.8877L27.3739 18.1806L26.6668 17.4735Z" fill="white"/>
<path d="M26.6668 8.5847L25.9597 9.29181L26.6668 9.9989L27.3739 9.29181L26.6668 8.5847Z" fill="white"/>
<path d="M26.6668 -0.304214L25.9597 0.402893L26.6668 1.10999L27.3739 0.402893L26.6668 -0.304214Z" fill="white"/>
<path d="M35.5556 159.696L34.8485 160.403L35.5556 161.11L36.2627 160.403L35.5556 159.696Z" fill="white"/>
<path d="M35.5556 150.807L34.8485 151.514L35.5556 152.221L36.2627 151.514L35.5556 150.807Z" fill="white"/>
<path d="M35.5556 141.918L34.8485 142.625L35.5556 143.332L36.2627 142.625L35.5556 141.918Z" fill="white"/>
<path d="M35.5556 133.029L34.8485 133.736L35.5556 134.443L36.2627 133.736L35.5556 133.029Z" fill="white"/>
<path d="M35.5556 124.14L34.8485 124.847L35.5556 125.554L36.2627 124.847L35.5556 124.14Z" fill="white"/>
<path d="M35.5556 115.251L34.8485 115.958L35.5556 116.666L36.2627 115.958L35.5556 115.251Z" fill="white"/>
<path d="M35.5556 106.362L34.8485 107.069L35.5556 107.777L36.2627 107.069L35.5556 106.362Z" fill="white"/>
<path d="M35.5556 97.4736L34.8485 98.1807L35.5556 98.8878L36.2627 98.1807L35.5556 97.4736Z" fill="white"/>
<path d="M35.5556 88.5847L34.8485 89.2917L35.5556 89.9989L36.2627 89.2917L35.5556 88.5847Z" fill="white"/>
<path d="M35.5556 79.6957L34.8485 80.4028L35.5556 81.1099L36.2627 80.4028L35.5556 79.6957Z" fill="white"/>
<path d="M35.5556 70.8069L34.8485 71.514L35.5556 72.2211L36.2627 71.514L35.5556 70.8069Z" fill="white"/>
<path d="M35.5556 61.918L34.8485 62.6251L35.5556 63.3322L36.2627 62.6251L35.5556 61.918Z" fill="white"/>
<path d="M35.5556 53.029L34.8485 53.7361L35.5556 54.4432L36.2627 53.7361L35.5556 53.029Z" fill="white"/>
<path d="M35.5556 44.1402L34.8485 44.8473L35.5556 45.5544L36.2627 44.8473L35.5556 44.1402Z" fill="white"/>
<path d="M35.5556 35.2513L34.8485 35.9584L35.5556 36.6655L36.2627 35.9584L35.5556 35.2513Z" fill="white"/>
<path d="M35.5556 26.3625L34.8485 27.0695L35.5556 27.7767L36.2627 27.0695L35.5556 26.3625Z" fill="white"/>
<path d="M35.5556 17.4735L34.8485 18.1806L35.5556 18.8877L36.2627 18.1806L35.5556 17.4735Z" fill="white"/>
<path d="M35.5556 8.5847L34.8485 9.29181L35.5556 9.9989L36.2627 9.29181L35.5556 8.5847Z" fill="white"/>
<path d="M35.5556 -0.304214L34.8485 0.402893L35.5556 1.10999L36.2627 0.402893L35.5556 -0.304214Z" fill="white"/>
<path d="M44.4445 159.696L43.7374 160.403L44.4445 161.11L45.1517 160.403L44.4445 159.696Z" fill="white"/>
<path d="M44.4445 150.807L43.7374 151.514L44.4445 152.221L45.1517 151.514L44.4445 150.807Z" fill="white"/>
<path d="M44.4445 141.918L43.7374 142.625L44.4445 143.332L45.1517 142.625L44.4445 141.918Z" fill="white"/>
<path d="M44.4445 133.029L43.7374 133.736L44.4445 134.443L45.1517 133.736L44.4445 133.029Z" fill="white"/>
<path d="M44.4445 124.14L43.7374 124.847L44.4445 125.554L45.1517 124.847L44.4445 124.14Z" fill="white"/>
<path d="M44.4445 115.251L43.7374 115.958L44.4445 116.666L45.1517 115.958L44.4445 115.251Z" fill="white"/>
<path d="M44.4445 106.362L43.7374 107.069L44.4445 107.777L45.1517 107.069L44.4445 106.362Z" fill="white"/>
<path d="M44.4445 97.4736L43.7374 98.1807L44.4445 98.8878L45.1517 98.1807L44.4445 97.4736Z" fill="white"/>
<path d="M44.4445 88.5847L43.7374 89.2917L44.4445 89.9989L45.1517 89.2917L44.4445 88.5847Z" fill="white"/>
<path d="M44.4445 79.6957L43.7374 80.4028L44.4445 81.1099L45.1517 80.4028L44.4445 79.6957Z" fill="white"/>
<path d="M44.4445 70.8069L43.7374 71.514L44.4445 72.2211L45.1517 71.514L44.4445 70.8069Z" fill="white"/>
<path d="M44.4445 61.918L43.7374 62.6251L44.4445 63.3322L45.1517 62.6251L44.4445 61.918Z" fill="white"/>
<path d="M44.4445 53.029L43.7374 53.7361L44.4445 54.4432L45.1517 53.7361L44.4445 53.029Z" fill="white"/>
<path d="M44.4445 44.1402L43.7374 44.8473L44.4445 45.5544L45.1517 44.8473L44.4445 44.1402Z" fill="white"/>
<path d="M44.4445 35.2513L43.7374 35.9584L44.4445 36.6655L45.1517 35.9584L44.4445 35.2513Z" fill="white"/>
<path d="M44.4445 26.3625L43.7374 27.0695L44.4445 27.7767L45.1517 27.0695L44.4445 26.3625Z" fill="white"/>
<path d="M44.4445 17.4735L43.7374 18.1806L44.4445 18.8877L45.1517 18.1806L44.4445 17.4735Z" fill="white"/>
<path d="M44.4445 8.5847L43.7374 9.29181L44.4445 9.9989L45.1517 9.29181L44.4445 8.5847Z" fill="white"/>
<path d="M44.4445 -0.304214L43.7374 0.402893L44.4445 1.10999L45.1517 0.402893L44.4445 -0.304214Z" fill="white"/>
<path d="M53.3335 159.696L52.6264 160.403L53.3335 161.11L54.0406 160.403L53.3335 159.696Z" fill="white"/>
<path d="M53.3335 150.807L52.6264 151.514L53.3335 152.221L54.0406 151.514L53.3335 150.807Z" fill="white"/>
<path d="M53.3335 141.918L52.6264 142.625L53.3335 143.332L54.0406 142.625L53.3335 141.918Z" fill="white"/>
<path d="M53.3335 133.029L52.6264 133.736L53.3335 134.443L54.0406 133.736L53.3335 133.029Z" fill="white"/>
<path d="M53.3335 124.14L52.6264 124.847L53.3335 125.554L54.0406 124.847L53.3335 124.14Z" fill="white"/>
<path d="M53.3335 115.251L52.6264 115.958L53.3335 116.666L54.0406 115.958L53.3335 115.251Z" fill="white"/>
<path d="M53.3335 106.362L52.6264 107.069L53.3335 107.777L54.0406 107.069L53.3335 106.362Z" fill="white"/>
<path d="M53.3335 97.4736L52.6264 98.1807L53.3335 98.8878L54.0406 98.1807L53.3335 97.4736Z" fill="white"/>
<path d="M53.3335 88.5847L52.6264 89.2917L53.3335 89.9989L54.0406 89.2917L53.3335 88.5847Z" fill="white"/>
<path d="M53.3335 79.6957L52.6264 80.4028L53.3335 81.1099L54.0406 80.4028L53.3335 79.6957Z" fill="white"/>
<path d="M53.3335 70.8069L52.6264 71.514L53.3335 72.2211L54.0406 71.514L53.3335 70.8069Z" fill="white"/>
<path d="M53.3335 61.918L52.6264 62.6251L53.3335 63.3322L54.0406 62.6251L53.3335 61.918Z" fill="white"/>
<path d="M53.3335 53.029L52.6264 53.7361L53.3335 54.4432L54.0406 53.7361L53.3335 53.029Z" fill="white"/>
<path d="M53.3335 44.1402L52.6264 44.8473L53.3335 45.5544L54.0406 44.8473L53.3335 44.1402Z" fill="white"/>
<path d="M53.3335 35.2513L52.6264 35.9584L53.3335 36.6655L54.0406 35.9584L53.3335 35.2513Z" fill="white"/>
<path d="M53.3335 26.3625L52.6264 27.0695L53.3335 27.7767L54.0406 27.0695L53.3335 26.3625Z" fill="white"/>
<path d="M53.3335 17.4735L52.6264 18.1806L53.3335 18.8877L54.0406 18.1806L53.3335 17.4735Z" fill="white"/>
<path d="M53.3335 8.5847L52.6264 9.29181L53.3335 9.9989L54.0406 9.29181L53.3335 8.5847Z" fill="white"/>
<path d="M53.3335 -0.304214L52.6264 0.402893L53.3335 1.10999L54.0406 0.402893L53.3335 -0.304214Z" fill="white"/>
<path d="M62.2222 159.696L61.5151 160.403L62.2222 161.11L62.9293 160.403L62.2222 159.696Z" fill="white"/>
<path d="M62.2222 150.807L61.5151 151.514L62.2222 152.221L62.9293 151.514L62.2222 150.807Z" fill="white"/>
<path d="M62.2222 141.918L61.5151 142.625L62.2222 143.332L62.9293 142.625L62.2222 141.918Z" fill="white"/>
<path d="M62.2222 133.029L61.5151 133.736L62.2222 134.443L62.9293 133.736L62.2222 133.029Z" fill="white"/>
<path d="M62.2222 124.14L61.5151 124.847L62.2222 125.554L62.9293 124.847L62.2222 124.14Z" fill="white"/>
<path d="M62.2222 115.251L61.5151 115.958L62.2222 116.666L62.9293 115.958L62.2222 115.251Z" fill="white"/>
<path d="M62.2222 106.362L61.5151 107.069L62.2222 107.777L62.9293 107.069L62.2222 106.362Z" fill="white"/>
<path d="M62.2222 97.4736L61.5151 98.1807L62.2222 98.8878L62.9293 98.1807L62.2222 97.4736Z" fill="white"/>
<path d="M62.2222 88.5847L61.5151 89.2917L62.2222 89.9989L62.9293 89.2917L62.2222 88.5847Z" fill="white"/>
<path d="M62.2222 79.6957L61.5151 80.4028L62.2222 81.1099L62.9293 80.4028L62.2222 79.6957Z" fill="white"/>
<path d="M62.2222 70.8069L61.5151 71.514L62.2222 72.2211L62.9293 71.514L62.2222 70.8069Z" fill="white"/>
<path d="M62.2222 61.918L61.5151 62.6251L62.2222 63.3322L62.9293 62.6251L62.2222 61.918Z" fill="white"/>
<path d="M62.2222 53.029L61.5151 53.7361L62.2222 54.4432L62.9293 53.7361L62.2222 53.029Z" fill="white"/>
<path d="M62.2222 44.1402L61.5151 44.8473L62.2222 45.5544L62.9293 44.8473L62.2222 44.1402Z" fill="white"/>
<path d="M62.2222 35.2513L61.5151 35.9584L62.2222 36.6655L62.9293 35.9584L62.2222 35.2513Z" fill="white"/>
<path d="M62.2222 26.3625L61.5151 27.0695L62.2222 27.7767L62.9293 27.0695L62.2222 26.3625Z" fill="white"/>
<path d="M62.2222 17.4735L61.5151 18.1806L62.2222 18.8877L62.9293 18.1806L62.2222 17.4735Z" fill="white"/>
<path d="M62.2222 8.5847L61.5151 9.29181L62.2222 9.9989L62.9293 9.29181L62.2222 8.5847Z" fill="white"/>
<path d="M62.2222 -0.304214L61.5151 0.402893L62.2222 1.10999L62.9293 0.402893L62.2222 -0.304214Z" fill="white"/>
<path d="M71.1112 159.696L70.4041 160.403L71.1112 161.11L71.8183 160.403L71.1112 159.696Z" fill="white"/>
<path d="M71.1112 150.807L70.4041 151.514L71.1112 152.221L71.8183 151.514L71.1112 150.807Z" fill="white"/>
<path d="M71.1112 141.918L70.4041 142.625L71.1112 143.332L71.8183 142.625L71.1112 141.918Z" fill="white"/>
<path d="M71.1112 133.029L70.4041 133.736L71.1112 134.443L71.8183 133.736L71.1112 133.029Z" fill="white"/>
<path d="M71.1112 124.14L70.4041 124.847L71.1112 125.554L71.8183 124.847L71.1112 124.14Z" fill="white"/>
<path d="M71.1112 115.251L70.4041 115.958L71.1112 116.666L71.8183 115.958L71.1112 115.251Z" fill="white"/>
<path d="M71.1112 106.362L70.4041 107.069L71.1112 107.777L71.8183 107.069L71.1112 106.362Z" fill="white"/>
<path d="M71.1112 97.4736L70.4041 98.1807L71.1112 98.8878L71.8183 98.1807L71.1112 97.4736Z" fill="white"/>
<path d="M71.1112 88.5847L70.4041 89.2917L71.1112 89.9989L71.8183 89.2917L71.1112 88.5847Z" fill="white"/>
<path d="M71.1112 79.6957L70.4041 80.4028L71.1112 81.1099L71.8183 80.4028L71.1112 79.6957Z" fill="white"/>
<path d="M71.1112 70.8069L70.4041 71.514L71.1112 72.2211L71.8183 71.514L71.1112 70.8069Z" fill="white"/>
<path d="M71.1112 61.918L70.4041 62.6251L71.1112 63.3322L71.8183 62.6251L71.1112 61.918Z" fill="white"/>
<path d="M71.1112 53.029L70.4041 53.7361L71.1112 54.4432L71.8183 53.7361L71.1112 53.029Z" fill="white"/>
<path d="M71.1112 44.1402L70.4041 44.8473L71.1112 45.5544L71.8183 44.8473L71.1112 44.1402Z" fill="white"/>
<path d="M71.1112 35.2513L70.4041 35.9584L71.1112 36.6655L71.8183 35.9584L71.1112 35.2513Z" fill="white"/>
<path d="M71.1112 26.3625L70.4041 27.0695L71.1112 27.7767L71.8183 27.0695L71.1112 26.3625Z" fill="white"/>
<path d="M71.1112 17.4735L70.4041 18.1806L71.1112 18.8877L71.8183 18.1806L71.1112 17.4735Z" fill="white"/>
<path d="M71.1112 8.5847L70.4041 9.29181L71.1112 9.9989L71.8183 9.29181L71.1112 8.5847Z" fill="white"/>
<path d="M71.1112 -0.304214L70.4041 0.402893L71.1112 1.10999L71.8183 0.402893L71.1112 -0.304214Z" fill="white"/>
<path d="M80.0002 159.696L79.2931 160.403L80.0002 161.11L80.7073 160.403L80.0002 159.696Z" fill="white"/>
<path d="M80.0002 150.807L79.2931 151.514L80.0002 152.221L80.7073 151.514L80.0002 150.807Z" fill="white"/>
<path d="M80.0002 141.918L79.2931 142.625L80.0002 143.332L80.7073 142.625L80.0002 141.918Z" fill="white"/>
<path d="M80.0002 133.029L79.2931 133.736L80.0002 134.443L80.7073 133.736L80.0002 133.029Z" fill="white"/>
<path d="M80.0002 124.14L79.2931 124.847L80.0002 125.554L80.7073 124.847L80.0002 124.14Z" fill="white"/>
<path d="M80.0002 115.251L79.2931 115.958L80.0002 116.666L80.7073 115.958L80.0002 115.251Z" fill="white"/>
<path d="M80.0002 106.362L79.2931 107.069L80.0002 107.777L80.7073 107.069L80.0002 106.362Z" fill="white"/>
<path d="M80.0002 97.4736L79.2931 98.1807L80.0002 98.8878L80.7073 98.1807L80.0002 97.4736Z" fill="white"/>
<path d="M80.0002 88.5847L79.2931 89.2917L80.0002 89.9989L80.7073 89.2917L80.0002 88.5847Z" fill="white"/>
<path d="M80.0002 79.6957L79.2931 80.4028L80.0002 81.1099L80.7073 80.4028L80.0002 79.6957Z" fill="white"/>
<path d="M80.0002 70.8069L79.2931 71.514L80.0002 72.2211L80.7073 71.514L80.0002 70.8069Z" fill="white"/>
<path d="M80.0002 61.918L79.2931 62.6251L80.0002 63.3322L80.7073 62.6251L80.0002 61.918Z" fill="white"/>
<path d="M80.0002 53.029L79.2931 53.7361L80.0002 54.4432L80.7073 53.7361L80.0002 53.029Z" fill="white"/>
<path d="M80.0002 44.1402L79.2931 44.8473L80.0002 45.5544L80.7073 44.8473L80.0002 44.1402Z" fill="white"/>
<path d="M80.0002 35.2513L79.2931 35.9584L80.0002 36.6655L80.7073 35.9584L80.0002 35.2513Z" fill="white"/>
<path d="M80.0002 26.3625L79.2931 27.0695L80.0002 27.7767L80.7073 27.0695L80.0002 26.3625Z" fill="white"/>
<path d="M80.0002 17.4735L79.2931 18.1806L80.0002 18.8877L80.7073 18.1806L80.0002 17.4735Z" fill="white"/>
<path d="M80.0002 8.5847L79.2931 9.29181L80.0002 9.9989L80.7073 9.29181L80.0002 8.5847Z" fill="white"/>
<path d="M80.0002 -0.304214L79.2931 0.402893L80.0002 1.10999L80.7073 0.402893L80.0002 -0.304214Z" fill="white"/>
<path d="M88.889 159.696L88.1819 160.403L88.889 161.11L89.5961 160.403L88.889 159.696Z" fill="white"/>
<path d="M88.889 150.807L88.1819 151.514L88.889 152.221L89.5961 151.514L88.889 150.807Z" fill="white"/>
<path d="M88.889 141.918L88.1819 142.625L88.889 143.332L89.5961 142.625L88.889 141.918Z" fill="white"/>
<path d="M88.889 133.029L88.1819 133.736L88.889 134.443L89.5961 133.736L88.889 133.029Z" fill="white"/>
<path d="M88.889 124.14L88.1819 124.847L88.889 125.554L89.5961 124.847L88.889 124.14Z" fill="white"/>
<path d="M88.889 115.251L88.1819 115.958L88.889 116.666L89.5961 115.958L88.889 115.251Z" fill="white"/>
<path d="M88.889 106.362L88.1819 107.069L88.889 107.777L89.5961 107.069L88.889 106.362Z" fill="white"/>
<path d="M88.889 97.4736L88.1819 98.1807L88.889 98.8878L89.5961 98.1807L88.889 97.4736Z" fill="white"/>
<path d="M88.889 88.5847L88.1819 89.2917L88.889 89.9989L89.5961 89.2917L88.889 88.5847Z" fill="white"/>
<path d="M88.889 79.6957L88.1819 80.4028L88.889 81.1099L89.5961 80.4028L88.889 79.6957Z" fill="white"/>
<path d="M88.889 70.8069L88.1819 71.514L88.889 72.2211L89.5961 71.514L88.889 70.8069Z" fill="white"/>
<path d="M88.889 61.918L88.1819 62.6251L88.889 63.3322L89.5961 62.6251L88.889 61.918Z" fill="white"/>
<path d="M88.889 53.029L88.1819 53.7361L88.889 54.4432L89.5961 53.7361L88.889 53.029Z" fill="white"/>
<path d="M88.889 44.1402L88.1819 44.8473L88.889 45.5544L89.5961 44.8473L88.889 44.1402Z" fill="white"/>
<path d="M88.889 35.2513L88.1819 35.9584L88.889 36.6655L89.5961 35.9584L88.889 35.2513Z" fill="white"/>
<path d="M88.889 26.3625L88.1819 27.0695L88.889 27.7767L89.5961 27.0695L88.889 26.3625Z" fill="white"/>
<path d="M88.889 17.4735L88.1819 18.1806L88.889 18.8877L89.5961 18.1806L88.889 17.4735Z" fill="white"/>
<path d="M88.889 8.5847L88.1819 9.29181L88.889 9.9989L89.5961 9.29181L88.889 8.5847Z" fill="white"/>
<path d="M88.889 -0.304214L88.1819 0.402893L88.889 1.10999L89.5961 0.402893L88.889 -0.304214Z" fill="white"/>
<path d="M97.7778 159.696L97.0707 160.403L97.7778 161.11L98.4849 160.403L97.7778 159.696Z" fill="white"/>
<path d="M97.7778 150.807L97.0707 151.514L97.7778 152.221L98.4849 151.514L97.7778 150.807Z" fill="white"/>
<path d="M97.7778 141.918L97.0707 142.625L97.7778 143.332L98.4849 142.625L97.7778 141.918Z" fill="white"/>
<path d="M97.7778 133.029L97.0707 133.736L97.7778 134.443L98.4849 133.736L97.7778 133.029Z" fill="white"/>
<path d="M97.7778 124.14L97.0707 124.847L97.7778 125.554L98.4849 124.847L97.7778 124.14Z" fill="white"/>
<path d="M97.7778 115.251L97.0707 115.958L97.7778 116.666L98.4849 115.958L97.7778 115.251Z" fill="white"/>
<path d="M97.7778 106.362L97.0707 107.069L97.7778 107.777L98.4849 107.069L97.7778 106.362Z" fill="white"/>
<path d="M97.7778 97.4736L97.0707 98.1807L97.7778 98.8878L98.4849 98.1807L97.7778 97.4736Z" fill="white"/>
<path d="M97.7778 88.5847L97.0707 89.2917L97.7778 89.9989L98.4849 89.2917L97.7778 88.5847Z" fill="white"/>
<path d="M97.7778 79.6957L97.0707 80.4028L97.7778 81.1099L98.4849 80.4028L97.7778 79.6957Z" fill="white"/>
<path d="M97.7778 70.8069L97.0707 71.514L97.7778 72.2211L98.4849 71.514L97.7778 70.8069Z" fill="white"/>
<path d="M97.7778 61.918L97.0707 62.6251L97.7778 63.3322L98.4849 62.6251L97.7778 61.918Z" fill="white"/>
<path d="M97.7778 53.029L97.0707 53.7361L97.7778 54.4432L98.4849 53.7361L97.7778 53.029Z" fill="white"/>
<path d="M97.7778 44.1402L97.0707 44.8473L97.7778 45.5544L98.4849 44.8473L97.7778 44.1402Z" fill="white"/>
<path d="M97.7778 35.2513L97.0707 35.9584L97.7778 36.6655L98.4849 35.9584L97.7778 35.2513Z" fill="white"/>
<path d="M97.7778 26.3625L97.0707 27.0695L97.7778 27.7767L98.4849 27.0695L97.7778 26.3625Z" fill="white"/>
<path d="M97.7778 17.4735L97.0707 18.1806L97.7778 18.8877L98.4849 18.1806L97.7778 17.4735Z" fill="white"/>
<path d="M97.7778 8.5847L97.0707 9.29181L97.7778 9.9989L98.4849 9.29181L97.7778 8.5847Z" fill="white"/>
<path d="M97.7778 -0.304214L97.0707 0.402893L97.7778 1.10999L98.4849 0.402893L97.7778 -0.304214Z" fill="white"/>
<path d="M106.667 159.696L105.96 160.403L106.667 161.11L107.374 160.403L106.667 159.696Z" fill="white"/>
<path d="M106.667 150.807L105.96 151.514L106.667 152.221L107.374 151.514L106.667 150.807Z" fill="white"/>
<path d="M106.667 141.918L105.96 142.625L106.667 143.332L107.374 142.625L106.667 141.918Z" fill="white"/>
<path d="M106.667 133.029L105.96 133.736L106.667 134.443L107.374 133.736L106.667 133.029Z" fill="white"/>
<path d="M106.667 124.14L105.96 124.847L106.667 125.554L107.374 124.847L106.667 124.14Z" fill="white"/>
<path d="M106.667 115.251L105.96 115.958L106.667 116.666L107.374 115.958L106.667 115.251Z" fill="white"/>
<path d="M106.667 106.362L105.96 107.069L106.667 107.777L107.374 107.069L106.667 106.362Z" fill="white"/>
<path d="M106.667 97.4736L105.96 98.1807L106.667 98.8878L107.374 98.1807L106.667 97.4736Z" fill="white"/>
<path d="M106.667 88.5847L105.96 89.2917L106.667 89.9989L107.374 89.2917L106.667 88.5847Z" fill="white"/>
<path d="M106.667 79.6957L105.96 80.4028L106.667 81.1099L107.374 80.4028L106.667 79.6957Z" fill="white"/>
<path d="M106.667 70.8069L105.96 71.514L106.667 72.2211L107.374 71.514L106.667 70.8069Z" fill="white"/>
<path d="M106.667 61.918L105.96 62.6251L106.667 63.3322L107.374 62.6251L106.667 61.918Z" fill="white"/>
<path d="M106.667 53.029L105.96 53.7361L106.667 54.4432L107.374 53.7361L106.667 53.029Z" fill="white"/>
<path d="M106.667 44.1402L105.96 44.8473L106.667 45.5544L107.374 44.8473L106.667 44.1402Z" fill="white"/>
<path d="M106.667 35.2513L105.96 35.9584L106.667 36.6655L107.374 35.9584L106.667 35.2513Z" fill="white"/>
<path d="M106.667 26.3625L105.96 27.0695L106.667 27.7767L107.374 27.0695L106.667 26.3625Z" fill="white"/>
<path d="M106.667 17.4735L105.96 18.1806L106.667 18.8877L107.374 18.1806L106.667 17.4735Z" fill="white"/>
<path d="M106.667 8.5847L105.96 9.29181L106.667 9.9989L107.374 9.29181L106.667 8.5847Z" fill="white"/>
<path d="M106.667 -0.304214L105.96 0.402893L106.667 1.10999L107.374 0.402893L106.667 -0.304214Z" fill="white"/>
<path d="M115.556 159.696L114.849 160.403L115.556 161.11L116.263 160.403L115.556 159.696Z" fill="white"/>
<path d="M115.556 150.807L114.849 151.514L115.556 152.221L116.263 151.514L115.556 150.807Z" fill="white"/>
<path d="M115.556 141.918L114.849 142.625L115.556 143.332L116.263 142.625L115.556 141.918Z" fill="white"/>
<path d="M115.556 133.029L114.849 133.736L115.556 134.443L116.263 133.736L115.556 133.029Z" fill="white"/>
<path d="M115.556 124.14L114.849 124.847L115.556 125.554L116.263 124.847L115.556 124.14Z" fill="white"/>
<path d="M115.556 115.251L114.849 115.958L115.556 116.666L116.263 115.958L115.556 115.251Z" fill="white"/>
<path d="M115.556 106.362L114.849 107.069L115.556 107.777L116.263 107.069L115.556 106.362Z" fill="white"/>
<path d="M115.556 97.4736L114.849 98.1807L115.556 98.8878L116.263 98.1807L115.556 97.4736Z" fill="white"/>
<path d="M115.556 88.5847L114.849 89.2917L115.556 89.9989L116.263 89.2917L115.556 88.5847Z" fill="white"/>
<path d="M115.556 79.6957L114.849 80.4028L115.556 81.1099L116.263 80.4028L115.556 79.6957Z" fill="white"/>
<path d="M115.556 70.8069L114.849 71.514L115.556 72.2211L116.263 71.514L115.556 70.8069Z" fill="white"/>
<path d="M115.556 61.918L114.849 62.6251L115.556 63.3322L116.263 62.6251L115.556 61.918Z" fill="white"/>
<path d="M115.556 53.029L114.849 53.7361L115.556 54.4432L116.263 53.7361L115.556 53.029Z" fill="white"/>
<path d="M115.556 44.1402L114.849 44.8473L115.556 45.5544L116.263 44.8473L115.556 44.1402Z" fill="white"/>
<path d="M115.556 35.2513L114.849 35.9584L115.556 36.6655L116.263 35.9584L115.556 35.2513Z" fill="white"/>
<path d="M115.556 26.3625L114.849 27.0695L115.556 27.7767L116.263 27.0695L115.556 26.3625Z" fill="white"/>
<path d="M115.556 17.4735L114.849 18.1806L115.556 18.8877L116.263 18.1806L115.556 17.4735Z" fill="white"/>
<path d="M115.556 8.5847L114.849 9.29181L115.556 9.9989L116.263 9.29181L115.556 8.5847Z" fill="white"/>
<path d="M115.556 -0.304214L114.849 0.402893L115.556 1.10999L116.263 0.402893L115.556 -0.304214Z" fill="white"/>
<path d="M124.444 159.696L123.737 160.403L124.444 161.11L125.152 160.403L124.444 159.696Z" fill="white"/>
<path d="M124.444 150.807L123.737 151.514L124.444 152.221L125.152 151.514L124.444 150.807Z" fill="white"/>
<path d="M124.444 141.918L123.737 142.625L124.444 143.332L125.152 142.625L124.444 141.918Z" fill="white"/>
<path d="M124.444 133.029L123.737 133.736L124.444 134.443L125.152 133.736L124.444 133.029Z" fill="white"/>
<path d="M124.444 124.14L123.737 124.847L124.444 125.554L125.152 124.847L124.444 124.14Z" fill="white"/>
<path d="M124.444 115.251L123.737 115.958L124.444 116.666L125.152 115.958L124.444 115.251Z" fill="white"/>
<path d="M124.444 106.362L123.737 107.069L124.444 107.777L125.152 107.069L124.444 106.362Z" fill="white"/>
<path d="M124.444 97.4736L123.737 98.1807L124.444 98.8878L125.152 98.1807L124.444 97.4736Z" fill="white"/>
<path d="M124.444 88.5847L123.737 89.2917L124.444 89.9989L125.152 89.2917L124.444 88.5847Z" fill="white"/>
<path d="M124.444 79.6957L123.737 80.4028L124.444 81.1099L125.152 80.4028L124.444 79.6957Z" fill="white"/>
<path d="M124.444 70.8069L123.737 71.514L124.444 72.2211L125.152 71.514L124.444 70.8069Z" fill="white"/>
<path d="M124.444 61.918L123.737 62.6251L124.444 63.3322L125.152 62.6251L124.444 61.918Z" fill="white"/>
<path d="M124.444 53.029L123.737 53.7361L124.444 54.4432L125.152 53.7361L124.444 53.029Z" fill="white"/>
<path d="M124.444 44.1402L123.737 44.8473L124.444 45.5544L125.152 44.8473L124.444 44.1402Z" fill="white"/>
<path d="M124.444 35.2513L123.737 35.9584L124.444 36.6655L125.152 35.9584L124.444 35.2513Z" fill="white"/>
<path d="M124.444 26.3625L123.737 27.0695L124.444 27.7767L125.152 27.0695L124.444 26.3625Z" fill="white"/>
<path d="M124.444 17.4735L123.737 18.1806L124.444 18.8877L125.152 18.1806L124.444 17.4735Z" fill="white"/>
<path d="M124.444 8.5847L123.737 9.29181L124.444 9.9989L125.152 9.29181L124.444 8.5847Z" fill="white"/>
<path d="M124.444 -0.304214L123.737 0.402893L124.444 1.10999L125.152 0.402893L124.444 -0.304214Z" fill="white"/>
<path d="M133.334 159.696L132.626 160.403L133.334 161.11L134.041 160.403L133.334 159.696Z" fill="white"/>
<path d="M133.334 150.807L132.626 151.514L133.334 152.221L134.041 151.514L133.334 150.807Z" fill="white"/>
<path d="M133.334 141.918L132.626 142.625L133.334 143.332L134.041 142.625L133.334 141.918Z" fill="white"/>
<path d="M133.334 133.029L132.626 133.736L133.334 134.443L134.041 133.736L133.334 133.029Z" fill="white"/>
<path d="M133.334 124.14L132.626 124.847L133.334 125.554L134.041 124.847L133.334 124.14Z" fill="white"/>
<path d="M133.334 115.251L132.626 115.958L133.334 116.666L134.041 115.958L133.334 115.251Z" fill="white"/>
<path d="M133.334 106.362L132.626 107.069L133.334 107.777L134.041 107.069L133.334 106.362Z" fill="white"/>
<path d="M133.334 97.4736L132.626 98.1807L133.334 98.8878L134.041 98.1807L133.334 97.4736Z" fill="white"/>
<path d="M133.334 88.5847L132.626 89.2917L133.334 89.9989L134.041 89.2917L133.334 88.5847Z" fill="white"/>
<path d="M133.334 79.6957L132.626 80.4028L133.334 81.1099L134.041 80.4028L133.334 79.6957Z" fill="white"/>
<path d="M133.334 70.8069L132.626 71.514L133.334 72.2211L134.041 71.514L133.334 70.8069Z" fill="white"/>
<path d="M133.334 61.918L132.626 62.6251L133.334 63.3322L134.041 62.6251L133.334 61.918Z" fill="white"/>
<path d="M133.334 53.029L132.626 53.7361L133.334 54.4432L134.041 53.7361L133.334 53.029Z" fill="white"/>
<path d="M133.334 44.1402L132.626 44.8473L133.334 45.5544L134.041 44.8473L133.334 44.1402Z" fill="white"/>
<path d="M133.334 35.2513L132.626 35.9584L133.334 36.6655L134.041 35.9584L133.334 35.2513Z" fill="white"/>
<path d="M133.334 26.3625L132.626 27.0695L133.334 27.7767L134.041 27.0695L133.334 26.3625Z" fill="white"/>
<path d="M133.334 17.4735L132.626 18.1806L133.334 18.8877L134.041 18.1806L133.334 17.4735Z" fill="white"/>
<path d="M133.334 8.5847L132.626 9.29181L133.334 9.9989L134.041 9.29181L133.334 8.5847Z" fill="white"/>
<path d="M133.334 -0.304214L132.626 0.402893L133.334 1.10999L134.041 0.402893L133.334 -0.304214Z" fill="white"/>
<path d="M142.222 159.696L141.515 160.403L142.222 161.11L142.929 160.403L142.222 159.696Z" fill="white"/>
<path d="M142.222 150.807L141.515 151.514L142.222 152.221L142.929 151.514L142.222 150.807Z" fill="white"/>
<path d="M142.222 141.918L141.515 142.625L142.222 143.332L142.929 142.625L142.222 141.918Z" fill="white"/>
<path d="M142.222 133.029L141.515 133.736L142.222 134.443L142.929 133.736L142.222 133.029Z" fill="white"/>
<path d="M142.222 124.14L141.515 124.847L142.222 125.554L142.929 124.847L142.222 124.14Z" fill="white"/>
<path d="M142.222 115.251L141.515 115.958L142.222 116.666L142.929 115.958L142.222 115.251Z" fill="white"/>
<path d="M142.222 106.362L141.515 107.069L142.222 107.777L142.929 107.069L142.222 106.362Z" fill="white"/>
<path d="M142.222 97.4736L141.515 98.1807L142.222 98.8878L142.929 98.1807L142.222 97.4736Z" fill="white"/>
<path d="M142.222 88.5847L141.515 89.2917L142.222 89.9989L142.929 89.2917L142.222 88.5847Z" fill="white"/>
<path d="M142.222 79.6957L141.515 80.4028L142.222 81.1099L142.929 80.4028L142.222 79.6957Z" fill="white"/>
<path d="M142.222 70.8069L141.515 71.514L142.222 72.2211L142.929 71.514L142.222 70.8069Z" fill="white"/>
<path d="M142.222 61.918L141.515 62.6251L142.222 63.3322L142.929 62.6251L142.222 61.918Z" fill="white"/>
<path d="M142.222 53.029L141.515 53.7361L142.222 54.4432L142.929 53.7361L142.222 53.029Z" fill="white"/>
<path d="M142.222 44.1402L141.515 44.8473L142.222 45.5544L142.929 44.8473L142.222 44.1402Z" fill="white"/>
<path d="M142.222 35.2513L141.515 35.9584L142.222 36.6655L142.929 35.9584L142.222 35.2513Z" fill="white"/>
<path d="M142.222 26.3625L141.515 27.0695L142.222 27.7767L142.929 27.0695L142.222 26.3625Z" fill="white"/>
<path d="M142.222 17.4735L141.515 18.1806L142.222 18.8877L142.929 18.1806L142.222 17.4735Z" fill="white"/>
<path d="M142.222 8.5847L141.515 9.29181L142.222 9.9989L142.929 9.29181L142.222 8.5847Z" fill="white"/>
<path d="M142.222 -0.304214L141.515 0.402893L142.222 1.10999L142.929 0.402893L142.222 -0.304214Z" fill="white"/>
<path d="M151.111 159.696L150.404 160.403L151.111 161.11L151.818 160.403L151.111 159.696Z" fill="white"/>
<path d="M151.111 150.807L150.404 151.514L151.111 152.221L151.818 151.514L151.111 150.807Z" fill="white"/>
<path d="M151.111 141.918L150.404 142.625L151.111 143.332L151.818 142.625L151.111 141.918Z" fill="white"/>
<path d="M151.111 133.029L150.404 133.736L151.111 134.443L151.818 133.736L151.111 133.029Z" fill="white"/>
<path d="M151.111 124.14L150.404 124.847L151.111 125.554L151.818 124.847L151.111 124.14Z" fill="white"/>
<path d="M151.111 115.251L150.404 115.958L151.111 116.666L151.818 115.958L151.111 115.251Z" fill="white"/>
<path d="M151.111 106.362L150.404 107.069L151.111 107.777L151.818 107.069L151.111 106.362Z" fill="white"/>
<path d="M151.111 97.4736L150.404 98.1807L151.111 98.8878L151.818 98.1807L151.111 97.4736Z" fill="white"/>
<path d="M151.111 88.5847L150.404 89.2917L151.111 89.9989L151.818 89.2917L151.111 88.5847Z" fill="white"/>
<path d="M151.111 79.6957L150.404 80.4028L151.111 81.1099L151.818 80.4028L151.111 79.6957Z" fill="white"/>
<path d="M151.111 70.8069L150.404 71.514L151.111 72.2211L151.818 71.514L151.111 70.8069Z" fill="white"/>
<path d="M151.111 61.918L150.404 62.6251L151.111 63.3322L151.818 62.6251L151.111 61.918Z" fill="white"/>
<path d="M151.111 53.029L150.404 53.7361L151.111 54.4432L151.818 53.7361L151.111 53.029Z" fill="white"/>
<path d="M151.111 44.1402L150.404 44.8473L151.111 45.5544L151.818 44.8473L151.111 44.1402Z" fill="white"/>
<path d="M151.111 35.2513L150.404 35.9584L151.111 36.6655L151.818 35.9584L151.111 35.2513Z" fill="white"/>
<path d="M151.111 26.3625L150.404 27.0695L151.111 27.7767L151.818 27.0695L151.111 26.3625Z" fill="white"/>
<path d="M151.111 17.4735L150.404 18.1806L151.111 18.8877L151.818 18.1806L151.111 17.4735Z" fill="white"/>
<path d="M151.111 8.5847L150.404 9.29181L151.111 9.9989L151.818 9.29181L151.111 8.5847Z" fill="white"/>
<path d="M151.111 -0.304214L150.404 0.402893L151.111 1.10999L151.818 0.402893L151.111 -0.304214Z" fill="white"/>
<path d="M160 159.696L159.293 160.403L160 161.11L160.707 160.403L160 159.696Z" fill="white"/>
<path d="M160 150.807L159.293 151.514L160 152.221L160.707 151.514L160 150.807Z" fill="white"/>
<path d="M160 141.918L159.293 142.625L160 143.332L160.707 142.625L160 141.918Z" fill="white"/>
<path d="M160 133.029L159.293 133.736L160 134.443L160.707 133.736L160 133.029Z" fill="white"/>
<path d="M160 124.14L159.293 124.847L160 125.554L160.707 124.847L160 124.14Z" fill="white"/>
<path d="M160 115.251L159.293 115.958L160 116.666L160.707 115.958L160 115.251Z" fill="white"/>
<path d="M160 106.362L159.293 107.069L160 107.777L160.707 107.069L160 106.362Z" fill="white"/>
<path d="M160 97.4736L159.293 98.1807L160 98.8878L160.707 98.1807L160 97.4736Z" fill="white"/>
<path d="M160 88.5847L159.293 89.2917L160 89.9989L160.707 89.2917L160 88.5847Z" fill="white"/>
<path d="M160 79.6957L159.293 80.4028L160 81.1099L160.707 80.4028L160 79.6957Z" fill="white"/>
<path d="M160 70.8069L159.293 71.514L160 72.2211L160.707 71.514L160 70.8069Z" fill="white"/>
<path d="M160 61.918L159.293 62.6251L160 63.3322L160.707 62.6251L160 61.918Z" fill="white"/>
<path d="M160 53.029L159.293 53.7361L160 54.4432L160.707 53.7361L160 53.029Z" fill="white"/>
<path d="M160 44.1402L159.293 44.8473L160 45.5544L160.707 44.8473L160 44.1402Z" fill="white"/>
<path d="M160 35.2513L159.293 35.9584L160 36.6655L160.707 35.9584L160 35.2513Z" fill="white"/>
<path d="M160 26.3625L159.293 27.0695L160 27.7767L160.707 27.0695L160 26.3625Z" fill="white"/>
<path d="M160 17.4735L159.293 18.1806L160 18.8877L160.707 18.1806L160 17.4735Z" fill="white"/>
<path d="M160 8.5847L159.293 9.29181L160 9.9989L160.707 9.29181L160 8.5847Z" fill="white"/>
<path d="M160 -0.304214L159.293 0.402893L160 1.10999L160.707 0.402893L160 -0.304214Z" fill="white"/>
</svg>
